<svg xmlns="http://www.w3.org/2000/svg" version="1.1" width="3300" height="2000"><g id="Notes"><style>
    text {
      font-family: monospace;
      text-anchor: middle;
    }
    text.emphasis {
      font-weight:bold;
    }
    text.lanchor {
      text-anchor: start;
    }
  </style><rect height="2200" id="artboard" fill="white" width="3300" x="0" y="0"/><line id="" style="fill:none;stroke:black;stroke-width:0.5;" x1="263" x2="3036" y1="292" y2="292"/><text class="lanchor emphasis" transform="matrix(1 0 0 1 263 322)">Weight/Scale Variations</text><text transform="matrix(1 0 0 1 559.711 322)">Ultralight</text><text transform="matrix(1 0 0 1 856.422 322)">Thin</text><text transform="matrix(1 0 0 1 1153.13 322)">Light</text><text transform="matrix(1 0 0 1 1449.84 322)">Regular</text><text transform="matrix(1 0 0 1 1746.56 322)">Medium</text><text transform="matrix(1 0 0 1 2043.27 322)">Semibold</text><text transform="matrix(1 0 0 1 2339.98 322)">Bold</text><text transform="matrix(1 0 0 1 2636.69 322)">Heavy</text><text transform="matrix(1 0 0 1 2933.4 322)">Black</text><text id="template-version" style="text-anchor: end;" transform="matrix(1 0 0 1 3036 1933)">Template v.1.0</text><text class="lanchor" transform="matrix(1 0 0 1 263 726)">Small</text><text class="lanchor" transform="matrix(1 0 0 1 263 1156)">Medium</text><text class="lanchor" transform="matrix(1 0 0 1 263 1586)">Large</text></g><g id="Guides"><g id="H-reference" style="fill:#27AAE1;stroke:none;" transform="matrix(1 0 0 1 339 696)"><path d="M 54.9316 0 L 57.666 0 L 30.5664 -70.459 L 28.0762 -70.459 L 0.976562 0 L 3.66211 0 L 12.9395 -24.4629 L 45.7031 -24.4629 Z M 29.1992 -67.0898 L 29.4434 -67.0898 L 44.8242 -26.709 L 13.8184 -26.709 Z"/></g><line id="Baseline-S" style="fill:none;stroke:#27AAE1;opacity:1;stroke-width:0.577;" x1="263" x2="3036" y1="696" y2="696"/><line id="Capline-S" style="fill:none;stroke:#27AAE1;opacity:1;stroke-width:0.577;" x1="263" x2="3036" y1="625.541" y2="625.541"/><g id="H-reference" style="fill:#27AAE1;stroke:none;" transform="matrix(1 0 0 1 339 1126)"><path d="M 54.9316 0 L 57.666 0 L 30.5664 -70.459 L 28.0762 -70.459 L 0.976562 0 L 3.66211 0 L 12.9395 -24.4629 L 45.7031 -24.4629 Z M 29.1992 -67.0898 L 29.4434 -67.0898 L 44.8242 -26.709 L 13.8184 -26.709 Z"/></g><line id="Baseline-M" style="fill:none;stroke:#27AAE1;opacity:1;stroke-width:0.577;" x1="263" x2="3036" y1="1126" y2="1126"/><line id="Capline-M" style="fill:none;stroke:#27AAE1;opacity:1;stroke-width:0.577;" x1="263" x2="3036" y1="1055.54" y2="1055.54"/><g id="H-reference" style="fill:#27AAE1;stroke:none;" transform="matrix(1 0 0 1 339 1556)"><path d="M 54.9316 0 L 57.666 0 L 30.5664 -70.459 L 28.0762 -70.459 L 0.976562 0 L 3.66211 0 L 12.9395 -24.4629 L 45.7031 -24.4629 Z M 29.1992 -67.0898 L 29.4434 -67.0898 L 44.8242 -26.709 L 13.8184 -26.709 Z"/></g><line id="Baseline-L" style="fill:none;stroke:#27AAE1;opacity:1;stroke-width:0.577;" x1="263" x2="3036" y1="1556" y2="1556"/><line id="Capline-L" style="fill:none;stroke:#27AAE1;opacity:1;stroke-width:0.577;" x1="263" x2="3036" y1="1485.54" y2="1485.54"/><rect height="119.336" id="left-margin" style="fill:darkred;stroke:none;opacity:0.4;" width="12.4512" x="1394.06" y="1030.79"/><rect height="119.336" id="right-margin" style="fill:darkgreen;stroke:none;opacity:0.4;" width="12.4512" x="1502.5112" y="1030.79"/><rect x="1406.5112" y="1045" width="96" height="96" fill="none" stroke="blue" stroke-dasharray="5"/><rect x="1394.06" y="1030.79" width="120.9024" height="119.336" fill="none" stroke="blue"/></g><g id="Symbols"><g id="Bold-L" transform="matrix(1 0 0 1 2266 1556)"><path d="M40.79625 26.851250000000014 Q34.312065000000004 26.851250000000014 29.8947825 22.481375000000018 Q25.4775 18.111500000000017 25.4775 11.693750000000016 V-77.47749999999999 H16.125 V-92.63499999999999 H53.37375 V-100.375 H101.265 V-92.63499999999999 H138.675 V-77.47749999999999 H129.3225 V11.693750000000016 Q129.3225 17.990562500000017 124.84474875000001 22.420906250000016 Q120.36715875 26.851250000000014 114.00375 26.851250000000014 H40.79625 Z M114.00375 -77.47749999999999 H40.79625 V11.693750000000016 Q40.79625 11.693750000000016 40.79625 11.693750000000016 Q40.79625 11.693750000000016 40.79625 11.693750000000016 H114.00375 Q114.00375 11.693750000000016 114.00375 11.693750000000016 Q114.00375 11.693750000000016 114.00375 11.693750000000016 V-77.47749999999999 Z M57.0825 -0.8837499999999849 H69.49875 V-65.22249999999998 H57.0825 V-0.8837499999999849 Z M85.30125 -0.8837499999999849 H97.87875 V-65.22249999999998 H85.30125 V-0.8837499999999849 Z"/></g><g id="Semibold-L" transform="matrix(1 0 0 1 1970.27 1556)"><path d="M41.3570775 25.098623750000016 Q35.956815 25.098623750000016 32.22436125 21.392937500000016 Q28.4919075 17.687412500000015 28.4919075 12.324721250000017 V-78.03832749999998 H20.33120625 V-90.81223 H54.565548750000005 V-97.29044875 H100.143345 V-90.81223 H134.46879375 V-78.03832749999998 H126.30809250000001 V12.324721250000017 Q126.30809250000001 17.566475000000015 122.51517 21.332468750000015 Q118.7222475 25.098623750000016 113.44292250000001 25.098623750000016 H41.3570775 Z M113.44292250000001 -78.03832749999998 H41.3570775 V12.324721250000017 Q41.3570775 12.324721250000017 41.3570775 12.324721250000017 Q41.3570775 12.324721250000017 41.3570775 12.324721250000017 H113.44292250000001 Q113.44292250000001 12.324721250000017 113.44292250000001 12.324721250000017 Q113.44292250000001 12.324721250000017 113.44292250000001 12.324721250000017 V-78.03832749999998 Z M57.993885 -0.8136062499999852 H69.21833625000001 V-65.15235625 H57.993885 V-0.8136062499999852 Z M85.58166375 -0.8136062499999852 H96.89722125 V-65.15235625 H85.58166375 V-0.8136062499999852 Z"/></g><g id="Medium-L" transform="matrix(1 0 0 1 1674.31 1556)"><path d="M41.777778749999996 23.783952500000016 Q37.19053875 23.783952500000016 33.9718275 20.576690000000013 Q30.75311625 17.369266250000017 30.75311625 12.797990000000016 V-78.45902874999999 H23.486385 V-89.44515249999998 H55.45951875 V-94.9766725 H99.30194250000001 V-89.44515249999998 H131.313615 V-78.45902874999999 H124.04688375 V12.797990000000016 Q124.04688375 17.248328750000017 120.76770375000001 20.516221250000015 Q117.48852375 23.783952500000016 113.02222125 23.783952500000016 H41.777778749999996 Z M113.02222125 -78.45902874999999 H41.777778749999996 V12.797990000000016 Q41.777778749999996 12.797990000000016 41.777778749999996 12.797990000000016 Q41.777778749999996 12.797990000000016 41.777778749999996 12.797990000000016 H113.02222125 Q113.02222125 12.797990000000016 113.02222125 12.797990000000016 Q113.02222125 12.797990000000016 113.02222125 12.797990000000016 V-78.45902874999999 Z M58.67742375 -0.7610387499999831 H69.00806625 V-65.09978874999999 H58.67742375 V-0.7610387499999831 Z M85.79193375 -0.7610387499999831 H96.161115 V-65.09978874999999 H85.79193375 V-0.7610387499999831 Z"/></g><g id="Regular-L" transform="matrix(1 0 0 1 1378.56 1556)"><path d="M42.08625 22.820000000000014 Q38.0953125 22.820000000000014 35.25328125 19.977968750000016 Q32.41125 17.135937500000015 32.41125 13.145000000000014 V-78.76749999999998 H25.8 V-88.4425 H56.115 V-93.28 H98.685 V-88.4425 H129.0 V-78.76749999999998 H122.38875 V13.145000000000014 Q122.38875 17.015000000000015 119.48625 19.917500000000015 Q116.58375000000001 22.820000000000014 112.71375 22.820000000000014 H42.08625 Z M112.71375 -78.76749999999998 H42.08625 V13.145000000000014 Q42.08625 13.145000000000014 42.08625 13.145000000000014 Q42.08625 13.145000000000014 42.08625 13.145000000000014 H112.71375 Q112.71375 13.145000000000014 112.71375 13.145000000000014 Q112.71375 13.145000000000014 112.71375 13.145000000000014 V-78.76749999999998 Z M59.17875 -0.7224999999999824 H68.85375 V-65.06124999999999 H59.17875 V-0.7224999999999824 Z M85.94625 -0.7224999999999824 H95.62125 V-65.06124999999999 H85.94625 V-0.7224999999999824 Z"/></g><g id="Light-L" transform="matrix(1 0 0 1 1082.77 1556)"><path d="M44.87732625 19.594838750000015 Q41.07247125 19.594838750000015 38.32348125 16.845848750000012 Q35.57449125 14.096697500000012 35.57449125 10.291842500000016 V-77.46492249999999 H29.02516125 V-84.7830925 H56.611166250000004 V-89.31050875 H98.18883375 V-84.7830925 H125.77483875 V-77.46492249999999 H119.22550875 V10.291842500000016 Q119.22550875 14.085893750000018 116.4711975 16.840366250000017 Q113.71672500000001 19.594838750000015 109.92267375 19.594838750000015 H44.87732625 Z M111.9075 -77.46492249999999 H42.8925 V10.291842500000016 Q42.8925 11.160173750000016 43.4817075 11.718421250000013 Q44.071076250000004 12.276668750000017 44.87732625 12.276668750000017 H109.92267375 Q110.66700375 12.276668750000017 111.28717125 11.656501250000016 Q111.9075 11.036172500000013 111.9075 10.291842500000016 V-77.46492249999999 Z M61.47366000000001 -1.3426674999999832 H68.79166875 V-64.00683624999999 H61.47366000000001 V-1.3426674999999832 Z M86.00833125 -1.3426674999999832 H93.32634 V-64.00683624999999 H86.00833125 V-1.3426674999999832 Z"/></g><g id="Thin-L" transform="matrix(1 0 0 1 787.282 1556)"><path d="M47.667918750000005 16.370000000000015 Q44.04914625 16.370000000000015 41.3931975 13.714051250000015 Q38.73724875 11.058102500000015 38.73724875 7.4393300000000195 V-76.16266749999998 H32.25 V-81.12432999999999 H57.1073325 V-85.34166249999998 H97.6926675 V-81.12432999999999 H122.55 V-76.16266749999998 H116.06275125 V7.4393300000000195 Q116.06275125 11.157271250000015 113.4564675 13.763716250000012 Q110.85018375 16.370000000000015 107.13208125 16.370000000000015 H47.667918750000005 Z M111.10125000000001 -76.16266749999998 H43.698750000000004 V7.4393300000000195 Q43.698750000000004 9.175831250000016 44.877165 10.292165000000015 Q46.05541875 11.408498750000014 47.667918750000005 11.408498750000014 H107.13208125 Q108.62058 11.408498750000014 109.860915 10.168163750000012 Q111.10125000000001 8.927667500000013 111.10125000000001 7.4393300000000195 V-76.16266749999998 Z M63.76808625 -1.9628349999999841 H68.72974875 V-62.95258374999999 H63.76808625 V-1.9628349999999841 Z M86.07025125 -1.9628349999999841 H91.03191375 V-62.95258374999999 H86.07025125 V-1.9628349999999841 Z"/></g><g id="Ultralight-L" transform="matrix(1 0 0 1 491.205 1556)"><path d="M49.3425 14.435000000000016 Q45.8353125 14.435000000000016 43.23515625 11.834843750000015 Q40.635 9.234687500000014 40.635 5.727500000000013 V-75.38125 H34.185 V-78.92875 H57.405 V-82.96 H97.395 V-78.92875 H120.61500000000001 V-75.38125 H114.165 V5.727500000000013 Q114.165 9.399968750000014 111.64756500000001 11.917403750000016 Q109.12996875 14.435000000000016 105.4575 14.435000000000016 H49.3425 Z M110.6175 -75.38125 H44.182500000000005 V5.727500000000013 Q44.182500000000005 7.985000000000014 45.714375000000004 9.436250000000015 Q47.24625 10.887500000000014 49.3425 10.887500000000014 H105.4575 Q107.3925 10.887500000000014 109.00500000000001 9.275000000000013 Q110.6175 7.662500000000016 110.6175 5.727500000000013 V-75.38125 Z M65.145 -2.3349999999999866 H68.6925 V-62.31999999999999 H65.145 V-2.3349999999999866 Z M86.1075 -2.3349999999999866 H89.655 V-62.31999999999999 H86.1075 V-2.3349999999999866 Z"/></g><g id="Bold-M" transform="matrix(1 0 0 1 2281.8 1126)"><path d="M33.625 14.02000000000001 Q27.0 14.02000000000001 22.4375 9.45750000000001 Q17.875 4.89500000000001 17.875 -1.7299999999999898 V-63.85499999999999 H10.0 V-79.60499999999999 H42.125 V-87.47999999999999 H77.625 V-79.60499999999999 H110.0 V-63.85499999999999 H102.125 V-1.7299999999999898 Q102.125 4.89500000000001 97.5625 9.45750000000001 Q93.0 14.02000000000001 86.375 14.02000000000001 H33.625 Z M86.375 -63.85499999999999 H33.625 V-1.7299999999999898 Q33.625 -1.7299999999999898 33.625 -1.7299999999999898 Q33.625 -1.7299999999999898 33.625 -1.7299999999999898 H86.375 Q86.375 -1.7299999999999898 86.375 -1.7299999999999898 Q86.375 -1.7299999999999898 86.375 -1.7299999999999898 V-63.85499999999999 Z M42.75 -10.35499999999999 H55.625 V-55.35499999999999 H42.75 V-10.35499999999999 Z M64.375 -10.35499999999999 H77.25 V-55.35499999999999 H64.375 V-10.35499999999999 Z"/></g><g id="Semibold-M" transform="matrix(1 0 0 1 1985.97 1126)"><path d="M34.22275 12.17225000000001 Q28.684625 12.17225000000001 24.828625 8.31625000000001 Q20.972625 4.460250000000009 20.972625 -1.0778749999999881 V-64.45275 H14.3475 V-77.70299999999999 H43.374875 V-84.32799999999999 H76.48375 V-77.70299999999999 H105.6525 V-64.45275 H99.027375 V-1.0778749999999881 Q99.027375 4.460250000000009 95.171375 8.31625000000001 Q91.315375 12.17225000000001 85.77725 12.17225000000001 H34.22275 Z M85.77725 -64.45275 H34.22275 V-1.0778749999999881 Q34.22275 -1.0778749999999881 34.22275 -1.0778749999999881 Q34.22275 -1.0778749999999881 34.22275 -1.0778749999999881 H85.77725 Q85.77725 -1.0778749999999881 85.77725 -1.0778749999999881 Q85.77725 -1.0778749999999881 85.77725 -1.0778749999999881 V-64.45275 Z M43.72825 -10.30062499999999 H55.35325 V-55.300625 H43.72825 V-10.30062499999999 Z M64.64675 -10.30062499999999 H76.27175 V-55.300625 H64.64675 V-10.30062499999999 Z"/></g><g id="Medium-M" transform="matrix(1 0 0 1 1689.91 1126)"><path d="M34.67125 10.78637500000001 Q29.948375 10.78637500000001 26.62225 7.460250000000009 Q23.296125 4.134125000000012 23.296125 -0.5887499999999903 V-64.90124999999999 H17.608625 V-76.27624999999999 H44.3125 V-81.96374999999999 H75.62775 V-76.27624999999999 H102.391375 V-64.90124999999999 H96.703875 V-0.5887499999999903 Q96.703875 4.134125000000012 93.37775 7.460250000000009 Q90.051625 10.78637500000001 85.32875 10.78637500000001 H34.67125 Z M85.32875 -64.90124999999999 H34.67125 V-0.5887499999999903 Q34.67125 -0.5887499999999903 34.67125 -0.5887499999999903 Q34.67125 -0.5887499999999903 34.67125 -0.5887499999999903 H85.32875 Q85.32875 -0.5887499999999903 85.32875 -0.5887499999999903 Q85.32875 -0.5887499999999903 85.32875 -0.5887499999999903 V-64.90124999999999 Z M44.462 -10.259874999999987 H55.1495 V-55.259874999999994 H44.462 V-10.259874999999987 Z M64.8505 -10.259874999999987 H75.538 V-55.259874999999994 H64.8505 V-10.259874999999987 Z"/></g><g id="Regular-M" transform="matrix(1 0 0 1 1394.06 1126)"><path d="M35.0 9.77000000000001 Q30.875 9.77000000000001 27.9375 6.83250000000001 Q25.0 3.8950000000000102 25.0 -0.22999999999998977 V-65.22999999999999 H20.0 V-75.22999999999999 H45.0 V-80.22999999999999 H75.0 V-75.22999999999999 H100.0 V-65.22999999999999 H95.0 V-0.22999999999998977 Q95.0 3.8950000000000102 92.0625 6.83250000000001 Q89.125 9.77000000000001 85.0 9.77000000000001 H35.0 Z M85.0 -65.22999999999999 H35.0 V-0.22999999999998977 Q35.0 -0.22999999999998977 35.0 -0.22999999999998977 Q35.0 -0.22999999999998977 35.0 -0.22999999999998977 H85.0 Q85.0 -0.22999999999998977 85.0 -0.22999999999998977 Q85.0 -0.22999999999998977 85.0 -0.22999999999998977 V-65.22999999999999 Z M45.0 -10.22999999999999 H55.0 V-55.22999999999999 H45.0 V-10.22999999999999 Z M65.0 -10.22999999999999 H75.0 V-55.22999999999999 H65.0 V-10.22999999999999 Z"/></g><g id="Light-M" transform="matrix(1 0 0 1 1098.18 1126)"><path d="M36.538625 7.26987500000001 Q32.79825 7.26987500000001 30.14925 4.620750000000012 Q27.500125 1.9717500000000108 27.500125 -1.7686249999999895 V-65.22999999999999 H22.500125 V-72.72987499999999 H45.0 V-77.152875 H75.0 V-72.72987499999999 H97.499875 V-65.22999999999999 H92.499875 V-1.7686249999999895 Q92.499875 2.0198750000000096 89.874875 4.64487500000001 Q87.249875 7.26987500000001 83.461375 7.26987500000001 H36.538625 Z M85.0 -65.22999999999999 H35.0 V-1.7686249999999895 Q35.0 -1.0954999999999906 35.43275 -0.6627499999999884 Q35.8655 -0.22999999999998977 36.538625 -0.22999999999998977 H83.461375 Q84.038375 -0.22999999999998977 84.51925 -0.7107499999999902 Q85.0 -1.1916249999999913 85.0 -1.7686249999999895 V-65.22999999999999 Z M47.019375 -10.22999999999999 H54.51925 V-55.22999999999999 H47.019375 V-10.22999999999999 Z M65.48075 -10.22999999999999 H72.980625 V-55.22999999999999 H65.48075 V-10.22999999999999 Z"/></g><g id="Thin-M" transform="matrix(1 0 0 1 802.565 1126)"><path d="M38.076875 4.77000000000001 Q34.721125 4.77000000000001 32.3605 2.409500000000012 Q30.0 0.04887500000000955 30.0 -3.306874999999991 V-65.22999999999999 H25.0 V-70.22999999999999 H45.0 V-74.07624999999999 H75.0 V-70.22999999999999 H95.0 V-65.22999999999999 H90.0 V-3.306874999999991 Q90.0 0.14500000000001023 87.6875 2.4575000000000102 Q85.375 4.77000000000001 81.923125 4.77000000000001 H38.076875 Z M85.0 -65.22999999999999 H35.0 V-3.306874999999991 Q35.0 -1.9607499999999902 35.865375 -1.09537499999999 Q36.73075 -0.22999999999998977 38.076875 -0.22999999999998977 H81.923125 Q83.076875 -0.22999999999998977 84.0385 -1.1914999999999907 Q85.0 -2.1531249999999886 85.0 -3.306874999999991 V-65.22999999999999 Z M49.038375 -10.22999999999999 H54.0385 V-55.22999999999999 H49.038375 V-10.22999999999999 Z M65.9615 -10.22999999999999 H70.961625 V-55.22999999999999 H65.9615 V-10.22999999999999 Z"/></g><g id="Ultralight-M" transform="matrix(1 0 0 1 506.415 1126)"><path d="M39.0 3.2700000000000102 Q35.875 3.2700000000000102 33.6875 1.0825000000000102 Q31.5 -1.1049999999999898 31.5 -4.22999999999999 V-65.22999999999999 H26.5 V-68.72999999999999 H45.0 V-72.22999999999999 H75.0 V-68.72999999999999 H93.5 V-65.22999999999999 H88.5 V-4.22999999999999 Q88.5 -0.9799999999999898 86.375 1.1450000000000102 Q84.25 3.2700000000000102 81.0 3.2700000000000102 H39.0 Z M85.0 -65.22999999999999 H35.0 V-4.22999999999999 Q35.0 -2.4799999999999898 36.125 -1.3549999999999898 Q37.25 -0.22999999999998977 39.0 -0.22999999999998977 H81.0 Q82.5 -0.22999999999998977 83.75 -1.4799999999999898 Q85.0 -2.7299999999999898 85.0 -4.22999999999999 V-65.22999999999999 Z M50.25 -10.22999999999999 H53.75 V-55.22999999999999 H50.25 V-10.22999999999999 Z M66.25 -10.22999999999999 H69.75 V-55.22999999999999 H66.25 V-10.22999999999999 Z"/></g><g id="Bold-S" transform="matrix(1 0 0 1 2294.23 696)"><path d="M29.686125 1.2612500000000129 Q24.784462500000004 1.2612500000000129 21.416418750000002 -2.106793749999987 Q18.048375 -5.474837499999989 18.048375 -10.376499999999986 V-55.44812499999999 H11.046000000000001 V-67.08587499999999 H35.603625 V-74.08824999999999 H58.879125 V-67.08587499999999 H83.634 V-55.44812499999999 H76.631625 V-10.419303249999988 Q76.631625 -5.445249999999987 73.26358125 -2.0919999999999863 Q69.8955375 1.2612500000000129 64.993875 1.2612500000000129 H29.686125 Z M64.993875 -55.44812499999999 H29.686125 V-10.376499999999986 Q29.686125 -10.376499999999986 29.686125 -10.376499999999986 Q29.686125 -10.376499999999986 29.686125 -10.376499999999986 H64.993875 Q64.993875 -10.376499999999986 64.993875 -10.376499999999986 Q64.993875 -10.376499999999986 64.993875 -10.376499999999986 V-55.44812499999999 Z M36.09675 -16.39262499999999 H45.466125000000005 V-49.530624999999986 H36.09675 V-16.39262499999999 Z M49.213875 -16.39262499999999 H58.58325 V-49.530624999999986 H49.213875 V-16.39262499999999 Z"/></g><g id="Semibold-S" transform="matrix(1 0 0 1 1998.1 696)"><path d="M30.15774975 -0.19662474999998736 Q26.113631625 -0.19662474999998736 23.303016375000002 -3.007239999999987 Q20.492401125 -5.817855249999987 20.492401125 -9.861973374999987 V-55.919749749999994 H14.4761775 V-65.585197 H36.58977637500001 V-71.601322 H57.97867875 V-65.585197 H80.2038225 V-55.919749749999994 H74.187598875 V-9.90477662499999 Q74.187598875 -5.788267749999989 71.37698362500001 -2.992446249999986 Q68.566368375 -0.19662474999998736 64.52225025 -0.19662474999998736 H30.15774975 Z M64.52225025 -55.919749749999994 H30.15774975 V-9.861973374999987 Q30.15774975 -9.861973374999987 30.15774975 -9.861973374999987 Q30.15774975 -9.861973374999987 30.15774975 -9.861973374999987 H64.52225025 Q64.52225025 -9.861973374999987 64.52225025 -9.861973374999987 Q64.52225025 -9.861973374999987 64.52225025 -9.861973374999987 V-55.919749749999994 Z M36.86858925000001 -16.349723124999986 H45.251714250000006 V-49.487723124999995 H36.86858925000001 V-16.349723124999986 Z M49.42828575 -16.349723124999986 H57.81141075 V-49.487723124999995 H49.42828575 V-16.349723124999986 Z"/></g><g id="Medium-S" transform="matrix(1 0 0 1 1701.85 696)"><path d="M30.511616250000003 -1.290080124999987 Q27.110730375000003 -1.290080124999987 24.718186499999998 -3.6826239999999864 Q22.325642625 -6.075167874999988 22.325642625 -9.476053749999988 V-56.27361624999999 H17.049205125 V-64.45949124999999 H37.3295625 V-69.73592874999999 H57.303294750000006 V-64.45949124999999 H77.630794875 V-56.27361624999999 H72.354357375 V-9.518856999999986 Q72.354357375 -6.045580374999986 69.9618135 -3.6678302499999873 Q67.569269625 -1.290080124999987 64.16838375 -1.290080124999987 H30.511616250000003 Z M64.16838375 -56.27361624999999 H30.511616250000003 V-9.476053749999988 Q30.511616250000003 -9.476053749999988 30.511616250000003 -9.476053749999988 Q30.511616250000003 -9.476053749999988 30.511616250000003 -9.476053749999988 H64.16838375 Q64.16838375 -9.476053749999988 64.16838375 -9.476053749999988 Q64.16838375 -9.476053749999988 64.16838375 -9.476053749999988 V-56.27361624999999 Z M37.447518 -16.317571374999986 H45.09095550000001 V-49.45557137499999 H37.447518 V-16.317571374999986 Z M49.5890445 -16.317571374999986 H57.232482 V-49.45557137499999 H49.5890445 V-16.317571374999986 Z"/></g><g id="Regular-S" transform="matrix(1 0 0 1 1405.73 696)"><path d="M30.771 -2.0919999999999863 Q27.841837500000004 -2.0919999999999863 25.75591875 -4.177918749999989 Q23.67 -6.263837499999987 23.67 -9.192999999999987 V-56.53299999999999 H18.936 V-63.633999999999986 H37.872 V-68.368 H56.808 V-63.633999999999986 H75.744 V-56.53299999999999 H71.01 V-9.235803249999986 Q71.01 -6.234249999999989 68.92408125 -4.163124999999987 Q66.83816250000001 -2.0919999999999863 63.909000000000006 -2.0919999999999863 H30.771 Z M63.909000000000006 -56.53299999999999 H30.771 V-9.192999999999987 Q30.771 -9.192999999999987 30.771 -9.192999999999987 Q30.771 -9.192999999999987 30.771 -9.192999999999987 H63.909000000000006 Q63.909000000000006 -9.192999999999987 63.909000000000006 -9.192999999999987 Q63.909000000000006 -9.192999999999987 63.909000000000006 -9.192999999999987 V-56.53299999999999 Z M37.872 -16.293999999999986 H44.973 V-49.43199999999999 H37.872 V-16.293999999999986 Z M49.707 -16.293999999999986 H56.808 V-49.43199999999999 H49.707 V-16.293999999999986 Z"/></g><g id="Light-S" transform="matrix(1 0 0 1 1109.75 696)"><path d="M31.984975125000005 -4.064598624999988 Q29.35928175 -4.064598624999988 27.5009895 -5.922989499999986 Q25.642598624999998 -7.781281749999987 25.642598624999998 -10.406975124999988 V-56.53299999999999 H20.908598625 V-61.661401375 H37.872 V-65.94014837499999 H56.808 V-61.661401375 H73.77140137500001 V-56.53299999999999 H69.037401375 V-10.449778374999987 Q69.037401375 -7.713723624999989 67.19804512500001 -5.889161124999987 Q65.358688875 -4.064598624999988 62.69502487500001 -4.064598624999988 H31.984975125000005 Z M63.909000000000006 -56.53299999999999 H30.771 V-10.406975124999988 Q30.771 -9.87587949999999 31.11243975 -9.534439749999986 Q31.4538795 -9.192999999999987 31.984975125000005 -9.192999999999987 H62.69502487500001 Q63.15027787500001 -9.192999999999987 63.52968825 -9.572311749999987 Q63.909000000000006 -9.95172212499999 63.909000000000006 -10.406975124999988 V-56.53299999999999 Z M39.465286875 -16.293999999999986 H44.59368825 V-49.43199999999999 H39.465286875 V-16.293999999999986 Z M50.08631175 -16.293999999999986 H55.214713125 V-49.43199999999999 H50.08631175 V-16.293999999999986 Z"/></g><g id="Thin-S" transform="matrix(1 0 0 1 814.015 696)"><path d="M33.198654375000004 -6.036999999999988 Q30.876430125000002 -6.036999999999988 29.24566575 -7.667665749999987 Q27.615000000000002 -9.298430124999985 27.615000000000002 -11.620654374999987 V-56.53299999999999 H22.881 V-59.68899999999999 H37.872 V-63.51269124999999 H56.808 V-59.68899999999999 H71.799 V-56.53299999999999 H67.065 V-11.663457624999989 Q67.065 -9.192999999999987 65.47220625 -7.614999999999988 Q63.87941250000001 -6.036999999999988 61.481345625 -6.036999999999988 H33.198654375000004 Z M63.909000000000006 -56.53299999999999 H30.771 V-11.620654374999987 Q30.771 -10.558561749999988 31.453780875000003 -9.875780874999986 Q32.13656175 -9.192999999999987 33.198654375000004 -9.192999999999987 H61.481345625 Q62.391654375 -9.192999999999987 63.1503765 -9.95162349999999 Q63.909000000000006 -10.710345624999988 63.909000000000006 -11.620654374999987 V-56.53299999999999 Z M41.058277875 -16.293999999999986 H44.2143765 V-49.43199999999999 H41.058277875 V-16.293999999999986 Z M50.4656235 -16.293999999999986 H53.621722125 V-49.43199999999999 H50.4656235 V-16.293999999999986 Z"/></g><g id="Ultralight-S" transform="matrix(1 0 0 1 517.792 696)"><path d="M33.927 -7.220499999999987 Q31.7868375 -7.220499999999987 30.29266875 -8.714668749999987 Q28.7985 -10.208837499999987 28.7985 -12.348999999999986 V-56.53299999999999 H24.064500000000002 V-58.505499999999984 H37.872 V-62.05599999999998 H56.808 V-58.505499999999984 H70.6155 V-56.53299999999999 H65.8815 V-12.391803249999988 Q65.8815 -10.080624999999987 64.43664375 -8.650562499999989 Q62.99178750000001 -7.220499999999987 60.753 -7.220499999999987 H33.927 Z M63.909000000000006 -56.53299999999999 H30.771 V-12.348999999999986 Q30.771 -10.968249999999987 31.658625 -10.080624999999987 Q32.54625 -9.192999999999987 33.927 -9.192999999999987 H60.753 Q61.9365 -9.192999999999987 62.92275 -10.179249999999989 Q63.909000000000006 -11.165499999999987 63.909000000000006 -12.348999999999986 V-56.53299999999999 Z M42.014250000000004 -16.293999999999986 H43.98675 V-49.43199999999999 H42.014250000000004 V-16.293999999999986 Z M50.69325 -16.293999999999986 H52.66575 V-49.43199999999999 H50.69325 V-16.293999999999986 Z"/></g></g></svg>