<svg xmlns="http://www.w3.org/2000/svg" version="1.1" width="3300" height="2000"><g id="Notes"><style>
    text {
      font-family: monospace;
      text-anchor: middle;
    }
    text.emphasis {
      font-weight:bold;
    }
    text.lanchor {
      text-anchor: start;
    }
  </style><rect height="2200" id="artboard" fill="white" width="3300" x="0" y="0"/><line id="" style="fill:none;stroke:black;stroke-width:0.5;" x1="263" x2="3036" y1="292" y2="292"/><text class="lanchor emphasis" transform="matrix(1 0 0 1 263 322)">Weight/Scale Variations</text><text transform="matrix(1 0 0 1 559.711 322)">Ultralight</text><text transform="matrix(1 0 0 1 856.422 322)">Thin</text><text transform="matrix(1 0 0 1 1153.13 322)">Light</text><text transform="matrix(1 0 0 1 1449.84 322)">Regular</text><text transform="matrix(1 0 0 1 1746.56 322)">Medium</text><text transform="matrix(1 0 0 1 2043.27 322)">Semibold</text><text transform="matrix(1 0 0 1 2339.98 322)">Bold</text><text transform="matrix(1 0 0 1 2636.69 322)">Heavy</text><text transform="matrix(1 0 0 1 2933.4 322)">Black</text><text id="template-version" style="text-anchor: end;" transform="matrix(1 0 0 1 3036 1933)">Template v.1.0</text><text class="lanchor" transform="matrix(1 0 0 1 263 726)">Small</text><text class="lanchor" transform="matrix(1 0 0 1 263 1156)">Medium</text><text class="lanchor" transform="matrix(1 0 0 1 263 1586)">Large</text></g><g id="Guides"><g id="H-reference" style="fill:#27AAE1;stroke:none;" transform="matrix(1 0 0 1 339 696)"><path d="M 54.9316 0 L 57.666 0 L 30.5664 -70.459 L 28.0762 -70.459 L 0.976562 0 L 3.66211 0 L 12.9395 -24.4629 L 45.7031 -24.4629 Z M 29.1992 -67.0898 L 29.4434 -67.0898 L 44.8242 -26.709 L 13.8184 -26.709 Z"/></g><line id="Baseline-S" style="fill:none;stroke:#27AAE1;opacity:1;stroke-width:0.577;" x1="263" x2="3036" y1="696" y2="696"/><line id="Capline-S" style="fill:none;stroke:#27AAE1;opacity:1;stroke-width:0.577;" x1="263" x2="3036" y1="625.541" y2="625.541"/><g id="H-reference" style="fill:#27AAE1;stroke:none;" transform="matrix(1 0 0 1 339 1126)"><path d="M 54.9316 0 L 57.666 0 L 30.5664 -70.459 L 28.0762 -70.459 L 0.976562 0 L 3.66211 0 L 12.9395 -24.4629 L 45.7031 -24.4629 Z M 29.1992 -67.0898 L 29.4434 -67.0898 L 44.8242 -26.709 L 13.8184 -26.709 Z"/></g><line id="Baseline-M" style="fill:none;stroke:#27AAE1;opacity:1;stroke-width:0.577;" x1="263" x2="3036" y1="1126" y2="1126"/><line id="Capline-M" style="fill:none;stroke:#27AAE1;opacity:1;stroke-width:0.577;" x1="263" x2="3036" y1="1055.54" y2="1055.54"/><g id="H-reference" style="fill:#27AAE1;stroke:none;" transform="matrix(1 0 0 1 339 1556)"><path d="M 54.9316 0 L 57.666 0 L 30.5664 -70.459 L 28.0762 -70.459 L 0.976562 0 L 3.66211 0 L 12.9395 -24.4629 L 45.7031 -24.4629 Z M 29.1992 -67.0898 L 29.4434 -67.0898 L 44.8242 -26.709 L 13.8184 -26.709 Z"/></g><line id="Baseline-L" style="fill:none;stroke:#27AAE1;opacity:1;stroke-width:0.577;" x1="263" x2="3036" y1="1556" y2="1556"/><line id="Capline-L" style="fill:none;stroke:#27AAE1;opacity:1;stroke-width:0.577;" x1="263" x2="3036" y1="1485.54" y2="1485.54"/><rect height="119.336" id="left-margin" style="fill:darkred;stroke:none;opacity:0.4;" width="12.4512" x="1394.06" y="1030.79"/><rect height="119.336" id="right-margin" style="fill:darkgreen;stroke:none;opacity:0.4;" width="12.4512" x="1502.5112" y="1030.79"/><rect x="1406.5112" y="1045" width="96" height="96" fill="none" stroke="blue" stroke-dasharray="5"/><rect x="1394.06" y="1030.79" width="120.9024" height="119.336" fill="none" stroke="blue"/></g><g id="Symbols"><g id="Bold-L" transform="matrix(1 0 0 1 2266 1556)"><path d="M23.05875 -77.15499999999999 V-92.47375 H132.06375 V-77.15499999999999 H23.05875 Z M23.777118750000003 21.852500000000017 V-19.749999999999986 H15.31875 V-34.907499999999985 L23.0945475 -67.47999999999999 H131.8667025 L139.6425 -34.907499999999985 V-19.749999999999986 H131.09625 V21.852500000000017 H115.93875 V-19.749999999999986 H90.94500000000001 V21.852500000000017 H23.777118750000003 Z M39.0225 6.6950000000000145 H75.78750000000001 V-19.749999999999986 H39.0225 V6.6950000000000145 Z M30.6375 -34.907499999999985 H124.32375 L120.2925 -52.32249999999999 H34.66875 L30.6375 -34.907499999999985 Z"/></g><g id="Semibold-L" transform="matrix(1 0 0 1 1970.27 1556)"><path d="M24.25054875 -77.15499999999999 V-90.02016999999998 H130.87195125000002 V-77.15499999999999 H24.25054875 Z M25.0069725 19.468902500000013 V-22.13359749999998 H16.7909625 V-34.907499999999985 L24.270705 -67.47999999999999 H130.69054500000001 L138.1702875 -34.907499999999985 V-22.13359749999998 H129.90445125000002 V19.468902500000013 H117.13054875 V-22.13359749999998 H89.75320125 V19.468902500000013 H25.0069725 Z M37.830701250000004 6.6950000000000145 H76.97929875000001 V-22.13359749999998 H37.830701250000004 V6.6950000000000145 Z M29.585988750000002 -34.907499999999985 H125.37526125 L120.92347125 -54.7060975 H34.03777875 L29.585988750000002 -34.907499999999985 Z"/></g><g id="Medium-L" transform="matrix(1 0 0 1 1674.31 1556)"><path d="M25.14451875 -77.15499999999999 V-88.17966249999998 H129.97798125 V-77.15499999999999 H25.14451875 Z M25.929645 17.681123750000015 V-23.921376249999994 H17.8952025 V-34.907499999999985 L25.153065 -67.47999999999999 H129.80818499999998 L137.06604750000002 -34.907499999999985 V-23.921376249999994 H129.01048125000003 V17.681123750000015 H118.02451875 V-23.921376249999994 H88.85923125000001 V17.681123750000015 H25.929645 Z M36.93673125 6.6950000000000145 H77.87326875000001 V-23.921376249999994 H36.93673125 V6.6950000000000145 Z M28.79715375 -34.907499999999985 H126.16409625 L121.39674 -56.493876249999985 H33.56451 L28.79715375 -34.907499999999985 Z"/></g><g id="Regular-L" transform="matrix(1 0 0 1 1378.56 1556)"><path d="M25.8 -77.15499999999999 V-86.82999999999998 H129.3225 V-77.15499999999999 H25.8 Z M26.60625 16.370000000000015 V-25.232499999999987 H18.705000000000002 V-34.907499999999985 L25.8 -67.47999999999999 H129.16125 L136.25625 -34.907499999999985 V-25.232499999999987 H128.355 V16.370000000000015 H118.68 V-25.232499999999987 H88.20375 V16.370000000000015 H26.60625 Z M36.28125 6.6950000000000145 H78.52875 V-25.232499999999987 H36.28125 V6.6950000000000145 Z M28.21875 -34.907499999999985 H126.7425 L121.74375 -57.80499999999999 H33.2175 L28.21875 -34.907499999999985 Z"/></g><g id="Light-L" transform="matrix(1 0 0 1 1082.77 1556)"><path d="M27.1644975 -77.89932999999999 V-85.21733875 H127.89592125 V-77.89932999999999 H27.1644975 Z M28.032828750000004 14.757338750000013 V-26.03874999999998 H19.75941375 V-33.35691999999999 L27.1644975 -65.86733874999999 H127.73467125 L135.20183625 -33.35691999999999 V-26.03874999999998 H126.92842125000001 V14.757338750000013 H119.6104125 V-26.03874999999998 H87.14933625 V14.757338750000013 H28.032828750000004 Z M35.3508375 7.4393300000000195 H79.8313275 V-26.03874999999998 H35.3508375 V7.4393300000000195 Z M26.916172500000002 -33.35691999999999 H127.98299625 L122.23991625000001 -58.54932999999998 H32.6592525 L26.916172500000002 -33.35691999999999 Z"/></g><g id="Thin-L" transform="matrix(1 0 0 1 787.282 1556)"><path d="M28.52883375 -78.64349874999999 V-83.60499999999999 H126.469665 V-78.64349874999999 H28.52883375 Z M29.459085 13.145000000000014 V-26.844999999999985 H20.81366625 V-31.806501249999982 L28.52883375 -64.25499999999998 H126.308415 L134.14758375 -31.806501249999982 V-26.844999999999985 H125.502165 V13.145000000000014 H120.5405025 V-26.844999999999985 H86.09508375 V13.145000000000014 H29.459085 Z M34.4207475 8.183498750000012 H81.1335825 V-26.844999999999985 H34.4207475 V8.183498750000012 Z M25.613917500000003 -31.806501249999982 H129.22333125 L122.73608250000001 -59.29349874999998 H32.10116625 L25.613917500000003 -31.806501249999982 Z"/></g><g id="Ultralight-L" transform="matrix(1 0 0 1 491.205 1556)"><path d="M29.3475 -79.08999999999999 V-82.63749999999999 H125.61375000000001 V-79.08999999999999 H29.3475 Z M30.315 12.177500000000016 V-27.328749999999985 H21.44625 V-30.876249999999985 L29.3475 -63.28749999999998 H125.4525 L133.51500000000001 -30.876249999999985 V-27.328749999999985 H124.64625000000001 V12.177500000000016 H121.09875000000001 V-27.328749999999985 H85.4625 V12.177500000000016 H30.315 Z M33.862500000000004 8.630000000000017 H81.915 V-27.328749999999985 H33.862500000000004 V8.630000000000017 Z M24.8325 -30.876249999999985 H129.9675 L123.03375 -59.73999999999998 H31.76625 L24.8325 -30.876249999999985 Z"/></g><g id="Bold-M" transform="matrix(1 0 0 1 2281.8 1126)"><path d="M17.125 -65.22999999999999 V-80.97999999999999 H102.875 V-65.22999999999999 H17.125 Z M17.0795 10.52000000000001 V-19.47999999999999 H11.5 V-35.22999999999999 L17.125 -60.22999999999999 H102.875 L108.5 -35.22999999999999 V-19.47999999999999 H102.875 V10.52000000000001 H87.125 V-19.47999999999999 H72.875 V10.52000000000001 H17.0795 Z M32.875 -5.22999999999999 H57.125 V-19.47999999999999 H32.875 V-5.22999999999999 Z M27.75 -35.22999999999999 H92.25 L90.25 -44.47999999999999 H29.75 L27.75 -35.22999999999999 Z"/></g><g id="Semibold-M" transform="matrix(1 0 0 1 1985.97 1126)"><path d="M18.374875 -65.22999999999999 V-78.48012499999999 H101.625125 V-65.22999999999999 H18.374875 Z M18.34925 8.02012500000001 V-21.979874999999993 H13.021625 V-35.22999999999999 L18.374875 -60.22999999999999 H101.625125 L106.978375 -35.22999999999999 V-21.979874999999993 H101.625125 V8.02012500000001 H88.374875 V-21.979874999999993 H71.625125 V8.02012500000001 H18.34925 Z M31.625125 -5.22999999999999 H58.374875 V-21.979874999999993 H31.625125 V-5.22999999999999 Z M26.663125 -35.22999999999999 H93.336875 L90.902125 -46.97987499999999 H29.097875 L26.663125 -35.22999999999999 Z"/></g><g id="Medium-M" transform="matrix(1 0 0 1 1689.91 1126)"><path d="M19.3125 -65.22999999999999 V-76.60499999999999 H100.6875 V-65.22999999999999 H19.3125 Z M19.301625 6.14500000000001 V-23.85499999999999 H14.163 V-35.22999999999999 L19.3125 -60.22999999999999 H100.6875 L105.837 -35.22999999999999 V-23.85499999999999 H100.6875 V6.14500000000001 H89.3125 V-23.85499999999999 H70.6875 V6.14500000000001 H19.301625 Z M30.6875 -5.22999999999999 H59.3125 V-23.85499999999999 H30.6875 V-5.22999999999999 Z M25.847875 -35.22999999999999 H94.152125 L91.39125 -48.85499999999999 H28.60875 L25.847875 -35.22999999999999 Z"/></g><g id="Regular-M" transform="matrix(1 0 0 1 1394.06 1126)"><path d="M20.0 -65.22999999999999 V-75.22999999999999 H100.0 V-65.22999999999999 H20.0 Z M20.0 4.77000000000001 V-25.22999999999999 H15.0 V-35.22999999999999 L20.0 -60.22999999999999 H100.0 L105.0 -35.22999999999999 V-25.22999999999999 H100.0 V4.77000000000001 H90.0 V-25.22999999999999 H70.0 V4.77000000000001 H20.0 Z M30.0 -5.22999999999999 H60.0 V-25.22999999999999 H30.0 V-5.22999999999999 Z M25.25 -35.22999999999999 H94.75 L91.75 -50.22999999999999 H28.25 L25.25 -35.22999999999999 Z"/></g><g id="Light-M" transform="matrix(1 0 0 1 1098.18 1126)"><path d="M21.05775 -66.48012499999999 V-73.97987499999999 H98.94225 V-66.48012499999999 H21.05775 Z M21.250125 3.5198750000000096 V-26.480124999999987 H15.673125 V-33.97987499999999 L21.05775 -58.97987499999999 H98.94225 L104.326875 -33.97987499999999 V-26.480124999999987 H98.749875 V3.5198750000000096 H91.250125 V-26.480124999999987 H68.749875 V3.5198750000000096 H21.250125 Z M28.749875 -3.979874999999989 H61.250125 V-26.480124999999987 H28.749875 V-3.979874999999989 Z M23.32675 -33.97987499999999 H96.67325 L92.855875 -51.48012499999999 H27.144125 L23.32675 -33.97987499999999 Z"/></g><g id="Thin-M" transform="matrix(1 0 0 1 802.565 1126)"><path d="M22.115375 -67.72999999999999 V-72.72999999999999 H97.884625 V-67.72999999999999 H22.115375 Z M22.5 2.2700000000000102 V-27.72999999999999 H16.346125 V-32.72999999999999 L22.115375 -57.72999999999999 H97.884625 L103.653875 -32.72999999999999 V-27.72999999999999 H97.5 V2.2700000000000102 H92.5 V-27.72999999999999 H67.5 V2.2700000000000102 H22.5 Z M27.5 -2.7299999999999898 H62.5 V-27.72999999999999 H27.5 V-2.7299999999999898 Z M21.403875 -32.72999999999999 H98.596125 L93.9615 -52.72999999999999 H26.0385 L21.403875 -32.72999999999999 Z"/></g><g id="Ultralight-M" transform="matrix(1 0 0 1 506.415 1126)"><path d="M22.75 -68.47999999999999 V-71.97999999999999 H97.25 V-68.47999999999999 H22.75 Z M23.25 1.5200000000000102 V-28.47999999999999 H16.75 V-31.97999999999999 L22.75 -56.97999999999999 H97.25 L103.25 -31.97999999999999 V-28.47999999999999 H96.75 V1.5200000000000102 H93.25 V-28.47999999999999 H66.75 V1.5200000000000102 H23.25 Z M26.75 -1.9799999999999898 H63.25 V-28.47999999999999 H26.75 V-1.9799999999999898 Z M20.25 -31.97999999999999 H99.75 L94.625 -53.47999999999999 H25.375 L20.25 -31.97999999999999 Z"/></g><g id="Bold-S" transform="matrix(1 0 0 1 2294.23 696)"><path d="M16.667625 -56.53299999999999 V-68.17074999999998 H78.012375 V-56.53299999999999 H16.667625 Z M16.6317255 0.07775000000001242 V-21.22524999999999 H11.4405 V-32.862999999999985 L16.667625 -51.79899999999999 H78.012375 L83.2395 -32.862999999999985 V-21.22524999999999 H78.012375 V0.07775000000001242 H66.37462500000001 V-21.22524999999999 H54.342375000000004 V0.07775000000001242 H16.6317255 Z M28.305375 -11.559999999999988 H42.704625 V-21.22524999999999 H28.305375 V-11.559999999999988 Z M23.47275 -32.862999999999985 H71.20725 L69.03750000000001 -40.16124999999999 H25.642500000000002 L23.47275 -32.862999999999985 Z"/></g><g id="Semibold-S" transform="matrix(1 0 0 1 1998.1 696)"><path d="M17.653776375 -56.53299999999999 V-66.198348625 H77.026223625 V-56.53299999999999 H17.653776375 Z M17.63355825 -1.8946513749999863 V-23.197651374999992 H12.641062125000001 V-32.862999999999985 L17.653776375 -51.79899999999999 H77.026223625 L82.038937875 -32.862999999999985 V-23.197651374999992 H77.026223625 V-1.8946513749999863 H67.360776375 V-23.197651374999992 H53.356223625 V-1.8946513749999863 H17.63355825 Z M27.319223625 -11.559999999999988 H43.690776375000006 V-23.197651374999992 H27.319223625 V-11.559999999999988 Z M22.615205625 -32.862999999999985 H72.064794375 L69.552026625 -42.13365137499999 H25.127973375 L22.615205625 -32.862999999999985 Z"/></g><g id="Medium-S" transform="matrix(1 0 0 1 1701.85 696)"><path d="M18.3935625 -56.53299999999999 V-64.71887499999998 H76.2864375 V-56.53299999999999 H18.3935625 Z M18.384982125 -3.374124999999987 V-24.67712499999999 H13.541607 V-32.862999999999985 L18.3935625 -51.79899999999999 H76.2864375 L81.13839300000001 -32.862999999999985 V-24.67712499999999 H76.2864375 V-3.374124999999987 H68.10056250000001 V-24.67712499999999 H52.6164375 V-3.374124999999987 H18.384982125 Z M26.5794375 -11.559999999999988 H44.4305625 V-24.67712499999999 H26.5794375 V-11.559999999999988 Z M21.971973375 -32.862999999999985 H72.708026625 L69.93794625 -43.61312499999999 H24.74205375 L21.971973375 -32.862999999999985 Z"/></g><g id="Regular-S" transform="matrix(1 0 0 1 1405.73 696)"><path d="M18.936 -56.53299999999999 V-63.633999999999986 H75.744 V-56.53299999999999 H18.936 Z M18.936 -4.458999999999985 V-25.761999999999986 H14.202 V-32.862999999999985 L18.936 -51.79899999999999 H75.744 L80.47800000000001 -32.862999999999985 V-25.761999999999986 H75.744 V-4.458999999999985 H68.643 V-25.761999999999986 H52.074000000000005 V-4.458999999999985 H18.936 Z M26.037000000000003 -11.559999999999988 H44.973 V-25.761999999999986 H26.037000000000003 V-11.559999999999988 Z M21.50025 -32.862999999999985 H73.17975 L70.221 -44.697999999999986 H24.459 L21.50025 -32.862999999999985 Z"/></g><g id="Light-S" transform="matrix(1 0 0 1 1109.75 696)"><path d="M19.77056475 -57.51934862499999 V-62.647651374999995 H74.90943525 V-57.51934862499999 H19.77056475 Z M19.922348625 -5.445348624999987 V-26.748348624999984 H14.733095624999999 V-31.876651374999987 L19.77056475 -50.812651374999994 H74.90943525 L79.946904375 -31.876651374999987 V-26.748348624999984 H74.75765137500001 V-5.445348624999987 H69.629348625 V-26.748348624999984 H51.08765137500001 V-5.445348624999987 H19.922348625 Z M25.050651375 -10.573651374999987 H45.959348625 V-26.748348624999984 H25.050651375 V-10.573651374999987 Z M19.98280575 -31.876651374999987 H74.69719425 L71.093535375 -45.684348624999984 H23.586464625 L19.98280575 -31.876651374999987 Z"/></g><g id="Thin-S" transform="matrix(1 0 0 1 814.015 696)"><path d="M20.605030875 -58.505499999999984 V-61.66149999999999 H74.07496912500001 V-58.505499999999984 H20.605030875 Z M20.9085 -6.431499999999986 V-27.73449999999999 H15.264092625000002 V-30.89049999999999 L20.605030875 -49.82649999999999 H74.07496912500001 L79.415907375 -30.89049999999999 V-27.73449999999999 H73.7715 V-6.431499999999986 H70.6155 V-27.73449999999999 H50.1015 V-6.431499999999986 H20.9085 Z M24.064500000000002 -9.587499999999988 H46.9455 V-27.73449999999999 H24.064500000000002 V-9.587499999999988 Z M18.465657375 -30.89049999999999 H76.214342625 L71.9658735 -46.67049999999999 H22.7141265 L18.465657375 -30.89049999999999 Z"/></g><g id="Ultralight-S" transform="matrix(1 0 0 1 517.792 696)"><path d="M21.10575 -59.09724999999999 V-61.069749999999985 H73.57425 V-59.09724999999999 H21.10575 Z M21.50025 -7.023249999999987 V-28.326249999999987 H15.58275 V-30.29874999999999 L21.10575 -49.23474999999999 H73.57425 L79.09725 -30.29874999999999 V-28.326249999999987 H73.17975 V-7.023249999999987 H71.20725 V-28.326249999999987 H49.509750000000004 V-7.023249999999987 H21.50025 Z M23.47275 -8.995749999999987 H47.53725 V-28.326249999999987 H23.47275 V-8.995749999999987 Z M17.55525 -30.29874999999999 H77.12475 L72.48937500000001 -47.26224999999999 H22.190625 L17.55525 -30.29874999999999 Z"/></g></g></svg>