<svg xmlns="http://www.w3.org/2000/svg" version="1.1" width="3300" height="2000"><g id="Notes"><style>
    text {
      font-family: monospace;
      text-anchor: middle;
    }
    text.emphasis {
      font-weight:bold;
    }
    text.lanchor {
      text-anchor: start;
    }
  </style><rect height="2200" id="artboard" fill="white" width="3300" x="0" y="0"/><line id="" style="fill:none;stroke:black;stroke-width:0.5;" x1="263" x2="3036" y1="292" y2="292"/><text class="lanchor emphasis" transform="matrix(1 0 0 1 263 322)">Weight/Scale Variations</text><text transform="matrix(1 0 0 1 559.711 322)">Ultralight</text><text transform="matrix(1 0 0 1 856.422 322)">Thin</text><text transform="matrix(1 0 0 1 1153.13 322)">Light</text><text transform="matrix(1 0 0 1 1449.84 322)">Regular</text><text transform="matrix(1 0 0 1 1746.56 322)">Medium</text><text transform="matrix(1 0 0 1 2043.27 322)">Semibold</text><text transform="matrix(1 0 0 1 2339.98 322)">Bold</text><text transform="matrix(1 0 0 1 2636.69 322)">Heavy</text><text transform="matrix(1 0 0 1 2933.4 322)">Black</text><text id="template-version" style="text-anchor: end;" transform="matrix(1 0 0 1 3036 1933)">Template v.1.0</text><text class="lanchor" transform="matrix(1 0 0 1 263 726)">Small</text><text class="lanchor" transform="matrix(1 0 0 1 263 1156)">Medium</text><text class="lanchor" transform="matrix(1 0 0 1 263 1586)">Large</text></g><g id="Guides"><g id="H-reference" style="fill:#27AAE1;stroke:none;" transform="matrix(1 0 0 1 339 696)"><path d="M 54.9316 0 L 57.666 0 L 30.5664 -70.459 L 28.0762 -70.459 L 0.976562 0 L 3.66211 0 L 12.9395 -24.4629 L 45.7031 -24.4629 Z M 29.1992 -67.0898 L 29.4434 -67.0898 L 44.8242 -26.709 L 13.8184 -26.709 Z"/></g><line id="Baseline-S" style="fill:none;stroke:#27AAE1;opacity:1;stroke-width:0.577;" x1="263" x2="3036" y1="696" y2="696"/><line id="Capline-S" style="fill:none;stroke:#27AAE1;opacity:1;stroke-width:0.577;" x1="263" x2="3036" y1="625.541" y2="625.541"/><g id="H-reference" style="fill:#27AAE1;stroke:none;" transform="matrix(1 0 0 1 339 1126)"><path d="M 54.9316 0 L 57.666 0 L 30.5664 -70.459 L 28.0762 -70.459 L 0.976562 0 L 3.66211 0 L 12.9395 -24.4629 L 45.7031 -24.4629 Z M 29.1992 -67.0898 L 29.4434 -67.0898 L 44.8242 -26.709 L 13.8184 -26.709 Z"/></g><line id="Baseline-M" style="fill:none;stroke:#27AAE1;opacity:1;stroke-width:0.577;" x1="263" x2="3036" y1="1126" y2="1126"/><line id="Capline-M" style="fill:none;stroke:#27AAE1;opacity:1;stroke-width:0.577;" x1="263" x2="3036" y1="1055.54" y2="1055.54"/><g id="H-reference" style="fill:#27AAE1;stroke:none;" transform="matrix(1 0 0 1 339 1556)"><path d="M 54.9316 0 L 57.666 0 L 30.5664 -70.459 L 28.0762 -70.459 L 0.976562 0 L 3.66211 0 L 12.9395 -24.4629 L 45.7031 -24.4629 Z M 29.1992 -67.0898 L 29.4434 -67.0898 L 44.8242 -26.709 L 13.8184 -26.709 Z"/></g><line id="Baseline-L" style="fill:none;stroke:#27AAE1;opacity:1;stroke-width:0.577;" x1="263" x2="3036" y1="1556" y2="1556"/><line id="Capline-L" style="fill:none;stroke:#27AAE1;opacity:1;stroke-width:0.577;" x1="263" x2="3036" y1="1485.54" y2="1485.54"/><rect height="119.336" id="left-margin" style="fill:darkred;stroke:none;opacity:0.4;" width="12.4512" x="1394.06" y="1030.79"/><rect height="119.336" id="right-margin" style="fill:darkgreen;stroke:none;opacity:0.4;" width="12.4512" x="1502.5112" y="1030.79"/><rect x="1406.5112" y="1045" width="96" height="96" fill="none" stroke="blue" stroke-dasharray="5"/><rect x="1394.06" y="1030.79" width="120.9024" height="119.336" fill="none" stroke="blue"/></g><g id="Symbols"><g id="Bold-L" transform="matrix(1 0 0 1 2266 1556)"><path d="M46.244565 30.882500000000014 Q41.441250000000004 30.882500000000014 38.055 27.462065000000017 Q34.66875 24.041468750000014 34.66875 19.238315000000018 Q34.66875 14.435000000000016 38.089185 11.048750000000016 Q41.50978125 7.662500000000016 46.312934999999996 7.662500000000016 Q51.11625 7.662500000000016 54.502500000000005 11.082935000000013 Q57.88875 14.503531250000016 57.88875 19.306685000000012 Q57.88875 24.110000000000014 54.468315000000004 27.496250000000018 Q51.04771875 30.882500000000014 46.244565 30.882500000000014 Z M110.74456500000001 30.882500000000014 Q105.94125 30.882500000000014 102.555 27.462065000000017 Q99.16875 24.041468750000014 99.16875 19.238315000000018 Q99.16875 14.435000000000016 102.589185 11.048750000000016 Q106.00978124999999 7.662500000000016 110.812935 7.662500000000016 Q115.61625000000001 7.662500000000016 119.0025 11.082935000000013 Q122.38875 14.503531250000016 122.38875 19.306685000000012 Q122.38875 24.110000000000014 118.968315 27.496250000000018 Q115.54771875000002 30.882500000000014 110.74456500000001 30.882500000000014 Z M40.9575 -75.54249999999999  55.95375 -44.25999999999999 H101.91 Q101.91 -44.25999999999999 101.91 -44.25999999999999 Q101.91 -44.25999999999999 101.91 -44.25999999999999 L118.84125 -75.54249999999999 Q118.84125 -75.54249999999999 118.84125 -75.54249999999999 Q118.84125 -75.54249999999999 118.84125 -75.54249999999999 H40.9575 Z M34.185 -88.76499999999999 H124.4969325 Q130.3303125 -88.76499999999999 133.37390625 -83.60499999999999 Q136.4175 -78.445 133.51500000000001 -73.12374999999999 L114.4875 -38.61624999999998 Q112.39125 -35.22999999999999 109.24558499999999 -33.05312499999998 Q106.09975874999999 -30.876249999999985 102.0489975 -30.876249999999985 H54.34125 L46.44 -15.879999999999988 Q46.44 -15.879999999999988 46.44 -15.879999999999988 Q46.44 -15.879999999999988 46.44 -15.879999999999988 H124.16250000000001 V-2.6574999999999847 H44.66625 Q36.60375 -2.6574999999999847 33.136875 -8.139999999999986 Q29.67 -13.622499999999988 33.378750000000004 -20.072499999999984 L43.215 -38.13249999999999 L19.6725 -88.28125 H6.45 V-101.50375 H28.21875 L34.185 -88.76499999999999 Z"/></g><g id="Semibold-L" transform="matrix(1 0 0 1 1970.27 1556)"><path d="M46.244565 30.11140250000002 Q41.441250000000004 30.11140250000002 38.055 26.690806250000016 Q34.66875 23.270371250000018 34.66875 18.467056250000013 Q34.66875 13.663902500000013 38.089185 10.277652500000013 Q41.50978125 6.891402500000012 46.312934999999996 6.891402500000012 Q51.11625 6.891402500000012 54.502500000000005 10.311837500000017 Q57.88875 13.732272500000015 57.88875 18.535587500000016 Q57.88875 23.338902500000017 54.468315000000004 26.725152500000014 Q51.04771875 30.11140250000002 46.244565 30.11140250000002 Z M110.74456500000001 30.11140250000002 Q105.94125 30.11140250000002 102.555 26.690806250000016 Q99.16875 23.270371250000018 99.16875 18.467056250000013 Q99.16875 13.663902500000013 102.589185 10.277652500000013 Q106.00978124999999 6.891402500000012 110.812935 6.891402500000012 Q115.61625000000001 6.891402500000012 119.0025 10.311837500000017 Q122.38875 13.732272500000015 122.38875 18.535587500000016 Q122.38875 23.338902500000017 118.968315 26.725152500000014 Q115.54771875000002 30.11140250000002 110.74456500000001 30.11140250000002 Z M39.625575000000005 -76.3135975  55.8134625 -42.647661249999985 H101.98014375 Q101.98014375 -42.647661249999985 101.98014375 -42.647661249999985 Q101.98014375 -42.647661249999985 101.98014375 -42.647661249999985 L120.3134625 -76.3135975 Q120.3134625 -76.3135975 120.3134625 -76.3135975 Q120.3134625 -76.3135975 120.3134625 -76.3135975 H39.625575000000005 Z M33.69431625 -87.99390249999999 H126.0391275 Q130.94644875 -87.99390249999999 133.506615 -83.60499999999999 Q136.0669425 -79.21609749999999 133.58514375 -74.73608875 L113.36584500000001 -38.195548749999986 Q111.40972125 -34.949586249999996 108.400635 -32.91283749999998 Q105.39154875 -30.876249999999985 101.6381325 -30.876249999999985 H53.42986500000001 L45.03793125 -15.108902499999985 Q45.03793125 -15.108902499999985 45.03793125 -15.108902499999985 Q45.03793125 -15.108902499999985 45.03793125 -15.108902499999985 H123.3914025 V-3.428597499999981 H44.66625 Q37.1645775 -3.428597499999981 33.9079725 -8.49055749999998 Q30.65152875 -13.552356249999988 34.079865000000005 -19.65179874999999 L44.126385 -38.13249999999999 L20.16318375 -89.0523475 H7.2210975 V-100.73265249999997 H27.72806625 L33.69431625 -87.99390249999999 Z"/></g><g id="Medium-L" transform="matrix(1 0 0 1 1674.31 1556)"><path d="M46.244565 29.532837500000014 Q41.441250000000004 29.532837500000014 38.055 26.112402500000016 Q34.66875 22.691967500000015 34.66875 17.888652500000017 Q34.66875 13.085337500000016 38.089185 9.699087500000012 Q41.50978125 6.312837500000015 46.312934999999996 6.312837500000015 Q51.11625 6.312837500000015 54.502500000000005 9.73343375000001 Q57.88875 13.153868750000015 57.88875 17.957183750000013 Q57.88875 22.760337500000016 54.468315000000004 26.146587500000013 Q51.04771875 29.532837500000014 46.244565 29.532837500000014 Z M110.74456500000001 29.532837500000014 Q105.94125 29.532837500000014 102.555 26.112402500000016 Q99.16875 22.691967500000015 99.16875 17.888652500000017 Q99.16875 13.085337500000016 102.589185 9.699087500000012 Q106.00978124999999 6.312837500000015 110.812935 6.312837500000015 Q115.61625000000001 6.312837500000015 119.0025 9.73343375000001 Q122.38875 13.153868750000015 122.38875 17.957183750000013 Q122.38875 22.760337500000016 118.968315 26.146587500000013 Q115.54771875000002 29.532837500000014 110.74456500000001 29.532837500000014 Z M38.626470000000005 -76.89216249999998  55.7083275 -41.438124999999985 H102.03271124999999 Q102.03271124999999 -41.438124999999985 102.03271124999999 -41.438124999999985 Q102.03271124999999 -41.438124999999985 102.03271124999999 -41.438124999999985 L121.41770249999999 -76.89216249999998 Q121.41770249999999 -76.89216249999998 121.41770249999999 -76.89216249999998 Q121.41770249999999 -76.89216249999998 121.41770249999999 -76.89216249999998 H38.626470000000005 Z M33.3261825 -87.41533749999999 H127.19609625 Q131.40843 -87.41533749999999 133.6062675 -83.60499999999999 Q135.80410500000002 -79.79466249999999 133.63771125 -75.94562499999999 L112.5244425 -37.88014374999999 Q110.673615 -34.73931624999999 107.7669225 -32.80770249999999 Q104.86039125 -30.876249999999985 101.3298225 -30.876249999999985 H52.746326249999996 L43.986258750000005 -14.530337499999987 Q43.986258750000005 -14.530337499999987 43.986258750000005 -14.530337499999987 Q43.986258750000005 -14.530337499999987 43.986258750000005 -14.530337499999987 H122.8128375 V-4.0071624999999855 H44.66625 Q37.58527875 -4.0071624999999855 34.486537500000004 -8.753394999999983 Q31.387635 -13.49978874999998 34.60570125 -19.336393749999985 L44.80992375 -38.13249999999999 L20.5313175 -89.6309125 H7.7996625 V-100.15408749999997 H27.359932500000003 L33.3261825 -87.41533749999999 Z"/></g><g id="Regular-L" transform="matrix(1 0 0 1 1378.56 1556)"><path d="M46.244565 29.108750000000015 Q41.441250000000004 29.108750000000015 38.055 25.688315000000014 Q34.66875 22.267718750000014 34.66875 17.464565000000018 Q34.66875 12.661250000000017 38.089185 9.275000000000013 Q41.50978125 5.888750000000016 46.312934999999996 5.888750000000016 Q51.11625 5.888750000000016 54.502500000000005 9.309185000000014 Q57.88875 12.729781250000016 57.88875 17.532935000000013 Q57.88875 22.336250000000014 54.468315000000004 25.722500000000014 Q51.04771875 29.108750000000015 46.244565 29.108750000000015 Z M110.74456500000001 29.108750000000015 Q105.94125 29.108750000000015 102.555 25.688315000000014 Q99.16875 22.267718750000014 99.16875 17.464565000000018 Q99.16875 12.661250000000017 102.589185 9.275000000000013 Q106.00978124999999 5.888750000000016 110.812935 5.888750000000016 Q115.61625000000001 5.888750000000016 119.0025 9.309185000000014 Q122.38875 12.729781250000016 122.38875 17.532935000000013 Q122.38875 22.336250000000014 118.968315 25.722500000000014 Q115.54771875000002 29.108750000000015 110.74456500000001 29.108750000000015 Z M37.893750000000004 -77.31624999999998  55.63125 -40.55124999999998 H102.07125 Q102.07125 -40.55124999999998 102.07125 -40.55124999999998 Q102.07125 -40.55124999999998 102.07125 -40.55124999999998 L122.2275 -77.31624999999998 Q122.2275 -77.31624999999998 122.2275 -77.31624999999998 Q122.2275 -77.31624999999998 122.2275 -77.31624999999998 H37.893750000000004 Z M33.05625 -86.99124999999998 H128.0444325 Q131.7473775 -86.99124999999998 133.67931375 -83.60499999999999 Q135.61125 -80.21874999999999 133.67625 -76.83249999999998 L111.9075 -37.64874999999999 Q110.13375 -34.58499999999998 107.30236125 -32.73062499999999 Q104.47081125 -30.876249999999985 101.10375 -30.876249999999985 H52.245000000000005 L43.215 -14.106249999999989 Q43.215 -14.106249999999989 43.215 -14.106249999999989 Q43.215 -14.106249999999989 43.215 -14.106249999999989 H122.38875 V-4.431249999999984 H44.66625 Q37.893750000000004 -4.431249999999984 34.910625 -8.946249999999985 Q31.927500000000002 -13.461249999999986 34.99125 -19.104999999999983 L45.31125 -38.13249999999999 L20.80125 -90.05499999999998 H8.22375 V-99.72999999999999 H27.09 L33.05625 -86.99124999999998 Z"/></g><g id="Light-L" transform="matrix(1 0 0 1 1082.77 1556)"><path d="M46.92681375 26.317673750000015 Q42.615795 26.317673750000015 39.634605 23.284077500000016 Q36.65357625 20.250481250000014 36.65357625 15.913985000000014 Q36.65357625 11.577327500000013 39.668145 8.578077500000013 Q42.682713750000005 5.578666250000012 46.9924425 5.578666250000012 Q51.3023325 5.578666250000012 54.3164175 8.612262500000014 Q57.3305025 11.645858750000016 57.3305025 15.982355000000016 Q57.3305025 20.318851250000016 54.296906250000006 23.318262500000017 Q51.26331 26.317673750000015 46.92681375 26.317673750000015 Z M109.44198750000001 26.317673750000015 Q105.13113 26.317673750000015 102.14994000000002 23.284077500000016 Q99.16875 20.250481250000014 99.16875 15.913985000000014 Q99.16875 11.577327500000013 102.18331875000001 8.578077500000013 Q105.19788750000001 5.578666250000012 109.50777750000002 5.578666250000012 Q113.81750625000001 5.578666250000012 116.83159125 8.612262500000014 Q119.8458375 11.645858750000016 119.8458375 15.982355000000016 Q119.8458375 20.318851250000016 116.81208000000001 23.318262500000017 Q113.77848374999999 26.317673750000015 109.44198750000001 26.317673750000015 Z M37.521585 -77.99849874999998  55.50724875 -40.48916874999999 H100.39666875 Q100.954755 -40.48916874999999 101.41996125 -40.76829249999999 Q101.88516750000001 -41.04741624999998 102.13333125 -41.543582499999985 L121.2351675 -76.26183624999999 Q121.6073325 -76.94408499999999 121.2970875 -77.47137249999999 Q120.98700375 -77.99849874999998 120.24267375000001 -77.99849874999998 H37.521585 Z M33.800580000000004 -85.31666874999999 H123.264015 Q127.21722 -85.31666874999999 129.24348750000001 -81.89929749999999 Q131.26959375 -78.48208749999999 129.33459375 -74.97183625 L109.51084125 -39.05823624999998 Q107.90092125000001 -36.38374374999998 105.37961625000001 -34.77737124999999 Q102.85831125 -33.171159999999986 99.93807375 -33.171159999999986 H52.245000000000005 L43.33900125 -16.71124374999998 Q42.90491625 -15.966913749999982 43.33900125 -15.098582499999985 Q43.7732475 -14.230251249999988 44.70349875 -14.230251249999988 H119.8458375 V-6.912242499999991 H45.782745 Q39.692493750000004 -6.912242499999991 36.9884925 -11.117158749999987 Q34.284330000000004 -15.321913749999986 37.037996250000006 -20.40757749999998 L47.4200775 -39.31091499999998 L23.034078750000003 -90.79933 H10.952745000000002 V-98.11733874999999 H27.77224875 L33.800580000000004 -85.31666874999999 Z"/></g><g id="Thin-L" transform="matrix(1 0 0 1 787.282 1556)"><path d="M47.60890125 23.527081250000016 Q43.79017875 23.527081250000016 41.21404875 20.880162500000015 Q38.637918750000004 18.233405000000015 38.637918750000004 14.363566250000012 Q38.637918750000004 10.493727500000013 41.2467825 7.881155000000014 Q43.855484999999994 5.268582500000015 47.67195 5.268582500000015 Q51.488415 5.268582500000015 54.130335 7.915340000000015 Q56.77241625 10.562258750000016 56.77241625 14.432097500000015 Q56.77241625 18.301936250000015 54.12565875000001 20.914508750000014 Q51.47874 23.527081250000016 47.60890125 23.527081250000016 Z M108.13973250000001 23.527081250000016 Q104.32101 23.527081250000016 101.74488000000001 20.880162500000015 Q99.16875 18.233405000000015 99.16875 14.363566250000012 Q99.16875 10.493727500000013 101.7774525 7.881155000000014 Q104.38631625 5.268582500000015 108.20278125 5.268582500000015 Q112.019085 5.268582500000015 114.66116625000001 7.915340000000015 Q117.3032475 10.562258750000016 117.3032475 14.432097500000015 Q117.3032475 18.301936250000015 114.65632875000001 20.914508750000014 Q112.00957125000001 23.527081250000016 108.13973250000001 23.527081250000016 Z M37.14958125 -78.68058624999999  55.3832475 -40.42724874999999 H98.72224875 Q99.8385825 -40.42724874999999 100.76883375 -40.98533499999999 Q101.69908500000001 -41.543582499999985 102.19525125 -42.53591499999999 L120.242835 -75.20758374999998 Q120.987165 -76.57208124999998 120.3669975 -77.62633374999999 Q119.74666875 -78.68058624999999 118.25833125 -78.68058624999999 H37.14958125 Z M34.54474875 -83.64224875 H118.48440375000001 Q122.68786875 -83.64224875 124.80830625 -80.19391749999998 Q126.9285825 -76.74574749999998 124.9935825 -73.11133374999999 L107.11466625000001 -40.467399999999984 Q105.668415 -38.18216499999998 103.45719375 -36.82379499999999 Q101.24581125 -35.46558624999999 98.77255875 -35.46558624999999 H52.245000000000005 L43.4630025 -19.315753749999992 Q42.5948325 -17.827416249999985 43.4630025 -16.09091499999998 Q44.33133375 -14.354252499999987 46.19183625 -14.354252499999987 H117.3032475 V-9.39275124999999 H46.8989175 Q41.490915 -9.39275124999999 39.06587625 -13.287583749999989 Q36.64099875 -17.18241624999999 39.08442 -21.709832499999983 L49.5285825 -40.48916874999999 L25.266585000000003 -91.54349875 H13.6814175 V-96.505 H28.454336250000004 L34.54474875 -83.64224875 Z"/></g><g id="Ultralight-L" transform="matrix(1 0 0 1 491.205 1556)"><path d="M48.018315 21.852500000000017 Q44.4950025 21.852500000000017 42.16187625 19.437781250000015 Q39.82875 17.023062500000016 39.82875 13.433315000000018 Q39.82875 9.843406250000015 42.193965000000006 7.462872500000017 Q44.559180000000005 5.082500000000017 48.07959 5.082500000000017 Q51.6 5.082500000000017 54.018750000000004 7.497218750000016 Q56.4375 9.911937500000015 56.4375 13.501685000000013 Q56.4375 17.091593750000015 54.02278125 19.472127500000017 Q51.6080625 21.852500000000017 48.018315 21.852500000000017 Z M107.358315 21.852500000000017 Q103.8350025 21.852500000000017 101.50187625000001 19.437781250000015 Q99.16875 17.023062500000016 99.16875 13.433315000000018 Q99.16875 9.843406250000015 101.53396500000001 7.462872500000017 Q103.89918 5.082500000000017 107.41959 5.082500000000017 Q110.94 5.082500000000017 113.35875 7.497218750000016 Q115.7775 9.911937500000015 115.7775 13.501685000000013 Q115.7775 17.091593750000015 113.36278125 19.472127500000017 Q110.94806249999999 21.852500000000017 107.358315 21.852500000000017 Z M36.92625 -79.08999999999999  55.30875 -40.389999999999986 H97.7175 Q99.16875 -40.389999999999986 100.378125 -41.11562499999998 Q101.5875 -41.84124999999999 102.2325 -43.13124999999998 L119.64750000000001 -74.57499999999999 Q120.61500000000001 -76.34874999999998 119.80875 -77.71937499999999 Q119.0025 -79.08999999999999 117.06750000000001 -79.08999999999999 H36.92625 Z M34.99125 -82.63749999999999 H115.61625000000001 Q119.97 -82.63749999999999 122.14687500000001 -79.17062499999999 Q124.32375 -75.70374999999999 122.38875 -71.99499999999999 L105.67663875000001 -41.31315624999999 Q104.32875 -39.26124999999999 102.30361125 -38.05187499999998 Q100.27831125 -36.84249999999999 98.07321750000001 -36.84249999999999 H52.245000000000005 L43.5375 -20.878749999999982 Q42.40875 -18.943749999999987 43.5375 -16.686249999999987 Q44.66625 -14.428749999999987 47.085 -14.428749999999987 H115.7775 V-10.881249999999987 H47.56875 Q42.57 -10.881249999999987 40.3125 -14.58999999999999 Q38.055 -18.298749999999984 40.3125 -22.49124999999998 L50.79375 -41.19624999999999 L26.60625 -91.98999999999998 H15.31875 V-95.5375 H28.86375 L34.99125 -82.63749999999999 Z"/></g><g id="Bold-M" transform="matrix(1 0 0 1 2281.8 1126)"><path d="M35.0 16.64500000000001 Q30.875 16.64500000000001 27.9375 13.70750000000001 Q25.0 10.77000000000001 25.0 6.64500000000001 Q25.0 2.5200000000000102 27.9375 -0.41749999999998977 Q30.875 -3.3549999999999898 35.0 -3.3549999999999898 Q39.125 -3.3549999999999898 42.0625 -0.41749999999998977 Q45.0 2.5200000000000102 45.0 6.64500000000001 Q45.0 10.77000000000001 42.0625 13.70750000000001 Q39.125 16.64500000000001 35.0 16.64500000000001 Z M85.0 16.64500000000001 Q80.875 16.64500000000001 77.9375 13.70750000000001 Q75.0 10.77000000000001 75.0 6.64500000000001 Q75.0 2.5200000000000102 77.9375 -0.41749999999998977 Q80.875 -3.3549999999999898 85.0 -3.3549999999999898 Q89.125 -3.3549999999999898 92.0625 -0.41749999999998977 Q95.0 2.5200000000000102 95.0 6.64500000000001 Q95.0 10.77000000000001 92.0625 13.70750000000001 Q89.125 16.64500000000001 85.0 16.64500000000001 Z M33.875 -63.35499999999999  43.0 -44.10499999999999 H77.5 Q77.5 -44.10499999999999 77.5 -44.10499999999999 Q77.5 -44.10499999999999 77.5 -44.10499999999999 L88.0 -63.35499999999999 Q88.0 -63.35499999999999 88.0 -63.35499999999999 Q88.0 -63.35499999999999 88.0 -63.35499999999999 H33.875 Z M27.125 -77.10499999999999 H96.125 Q101.202125 -77.10499999999999 103.851 -72.66749999999999 Q106.5 -68.22999999999999 104.0 -63.60499999999999 L89.125 -36.47999999999999 Q87.5 -33.60499999999999 84.756375 -31.91749999999999 Q82.01275 -30.22999999999999 78.75 -30.22999999999999 H42.625 L38.25 -22.10499999999999 Q38.25 -22.10499999999999 38.25 -22.10499999999999 Q38.25 -22.10499999999999 38.25 -22.10499999999999 H96.875 V-8.35499999999999 H35.0 Q28.0 -8.35499999999999 24.625 -14.29249999999999 Q21.25 -20.22999999999999 24.5 -25.97999999999999 L30.875 -37.22999999999999 L13.875 -73.35499999999999 H3.125 V-87.10499999999999 H22.375 L27.125 -77.10499999999999 Z"/></g><g id="Semibold-M" transform="matrix(1 0 0 1 1985.97 1126)"><path d="M35.0 15.82987500000001 Q30.875 15.82987500000001 27.9375 12.89237500000001 Q25.0 9.95487500000001 25.0 5.829875000000012 Q25.0 1.704875000000012 27.9375 -1.232624999999988 Q30.875 -4.170124999999988 35.0 -4.170124999999988 Q39.125 -4.170124999999988 42.0625 -1.232624999999988 Q45.0 1.704875000000012 45.0 5.829875000000012 Q45.0 9.95487500000001 42.0625 12.89237500000001 Q39.125 15.82987500000001 35.0 15.82987500000001 Z M85.0 15.82987500000001 Q80.875 15.82987500000001 77.9375 12.89237500000001 Q75.0 9.95487500000001 75.0 5.829875000000012 Q75.0 1.704875000000012 77.9375 -1.232624999999988 Q80.875 -4.170124999999988 85.0 -4.170124999999988 Q89.125 -4.170124999999988 92.0625 -1.232624999999988 Q95.0 1.704875000000012 95.0 5.829875000000012 Q95.0 9.95487500000001 92.0625 12.89237500000001 Q89.125 15.82987500000001 85.0 15.82987500000001 Z M32.516375 -64.17012499999998  42.89125 -42.42037499999999 H77.60875 Q77.60875 -42.42037499999999 77.60875 -42.42037499999999 Q77.60875 -42.42037499999999 77.60875 -42.42037499999999 L89.521625 -64.17012499999998 Q89.521625 -64.17012499999998 89.521625 -64.17012499999998 Q89.521625 -64.17012499999998 89.521625 -64.17012499999998 H32.516375 Z M26.635875 -76.289875 H97.701 Q101.82075 -76.289875 103.970125 -72.66749999999999 Q106.119625 -69.04512499999998 104.10875 -65.28962499999999 L87.98375 -36.04524999999999 Q86.4675 -33.33324999999999 83.91125 -31.78162499999999 Q81.355 -30.22999999999999 78.31525 -30.22999999999999 H41.701125 L36.837 -21.289874999999988 Q36.837 -21.289874999999988 36.837 -21.289874999999988 Q36.837 -21.289874999999988 36.837 -21.289874999999988 H96.059875 V-9.170124999999992 H35.0 Q28.59775 -9.170124999999992 25.440125 -14.67287499999999 Q22.2825 -20.17562499999999 25.260875 -25.54524999999999 L31.798875 -37.22999999999999 L14.364125 -74.17012499999998 H3.940125 V-86.289875 H21.885875 L26.635875 -76.289875 Z"/></g><g id="Medium-M" transform="matrix(1 0 0 1 1689.91 1126)"><path d="M35.0 15.21837500000001 Q30.875 15.21837500000001 27.9375 12.28087500000001 Q25.0 9.34337500000001 25.0 5.218375000000009 Q25.0 1.0933750000000089 27.9375 -1.8441249999999911 Q30.875 -4.781624999999991 35.0 -4.781624999999991 Q39.125 -4.781624999999991 42.0625 -1.8441249999999911 Q45.0 1.0933750000000089 45.0 5.218375000000009 Q45.0 9.34337500000001 42.0625 12.28087500000001 Q39.125 15.21837500000001 35.0 15.21837500000001 Z M85.0 15.21837500000001 Q80.875 15.21837500000001 77.9375 12.28087500000001 Q75.0 9.34337500000001 75.0 5.218375000000009 Q75.0 1.0933750000000089 77.9375 -1.8441249999999911 Q80.875 -4.781624999999991 85.0 -4.781624999999991 Q89.125 -4.781624999999991 92.0625 -1.8441249999999911 Q95.0 1.0933750000000089 95.0 5.218375000000009 Q95.0 9.34337500000001 92.0625 12.28087500000001 Q89.125 15.21837500000001 85.0 15.21837500000001 Z M31.49725 -64.78162499999999  42.80975 -41.15662499999999 H77.69025 Q77.69025 -41.15662499999999 77.69025 -41.15662499999999 Q77.69025 -41.15662499999999 77.69025 -41.15662499999999 L90.663 -64.78162499999999 Q90.663 -64.78162499999999 90.663 -64.78162499999999 Q90.663 -64.78162499999999 90.663 -64.78162499999999 H31.49725 Z M26.269 -75.67837499999999 H98.883125 Q102.28475 -75.67837499999999 104.0595 -72.66749999999999 Q105.83425 -69.65662499999999 104.19025 -66.55337499999999 L87.12775 -35.71912499999999 Q85.693 -33.12949999999999 83.277375 -31.67974999999999 Q80.86175 -30.22999999999999 77.989125 -30.22999999999999 H41.008125 L35.77725 -20.67837499999999 Q35.77725 -20.67837499999999 35.77725 -20.67837499999999 Q35.77725 -20.67837499999999 35.77725 -20.67837499999999 H95.448375 V-9.781624999999991 H35.0 Q29.04625 -9.781624999999991 26.051625 -14.958249999999992 Q23.057 -20.134874999999987 25.8315 -25.21912499999999 L32.491875 -37.22999999999999 L14.731 -74.78162499999999 H4.551625 V-85.67837499999999 H21.519 L26.269 -75.67837499999999 Z"/></g><g id="Regular-M" transform="matrix(1 0 0 1 1394.06 1126)"><path d="M35.0 14.77000000000001 Q30.875 14.77000000000001 27.9375 11.83250000000001 Q25.0 8.89500000000001 25.0 4.77000000000001 Q25.0 0.6450000000000102 27.9375 -2.2924999999999898 Q30.875 -5.22999999999999 35.0 -5.22999999999999 Q39.125 -5.22999999999999 42.0625 -2.2924999999999898 Q45.0 0.6450000000000102 45.0 4.77000000000001 Q45.0 8.89500000000001 42.0625 11.83250000000001 Q39.125 14.77000000000001 35.0 14.77000000000001 Z M85.0 14.77000000000001 Q80.875 14.77000000000001 77.9375 11.83250000000001 Q75.0 8.89500000000001 75.0 4.77000000000001 Q75.0 0.6450000000000102 77.9375 -2.2924999999999898 Q80.875 -5.22999999999999 85.0 -5.22999999999999 Q89.125 -5.22999999999999 92.0625 -2.2924999999999898 Q95.0 0.6450000000000102 95.0 4.77000000000001 Q95.0 8.89500000000001 92.0625 11.83250000000001 Q89.125 14.77000000000001 85.0 14.77000000000001 Z M30.75 -65.22999999999999  42.75 -40.22999999999999 H77.75 Q77.75 -40.22999999999999 77.75 -40.22999999999999 Q77.75 -40.22999999999999 77.75 -40.22999999999999 L91.5 -65.22999999999999 Q91.5 -65.22999999999999 91.5 -65.22999999999999 Q91.5 -65.22999999999999 91.5 -65.22999999999999 H30.75 Z M26.0 -75.22999999999999 H99.75 Q102.625 -75.22999999999999 104.125 -72.66749999999999 Q105.625 -70.10499999999999 104.25 -67.47999999999999 L86.5 -35.47999999999999 Q85.125 -32.97999999999999 82.8125 -31.60499999999999 Q80.5 -30.22999999999999 77.75 -30.22999999999999 H40.5 L35.0 -20.22999999999999 Q35.0 -20.22999999999999 35.0 -20.22999999999999 Q35.0 -20.22999999999999 35.0 -20.22999999999999 H95.0 V-10.22999999999999 H35.0 Q29.375 -10.22999999999999 26.5 -15.16749999999999 Q23.625 -20.10499999999999 26.25 -24.97999999999999 L33.0 -37.22999999999999 L15.0 -75.22999999999999 H5.0 V-85.22999999999999 H21.25 L26.0 -75.22999999999999 Z"/></g><g id="Light-M" transform="matrix(1 0 0 1 1098.18 1126)"><path d="M35.76925 12.55825000000001 Q32.125125 12.55825000000001 29.57225 10.00550000000001 Q27.019375 7.452625000000012 27.019375 3.8083750000000087 Q27.019375 0.16425000000000978 29.57225 -2.3886249999999905 Q32.125125 -4.941499999999991 35.76925 -4.941499999999991 Q39.4135 -4.941499999999991 41.966375 -2.3886249999999905 Q44.51925 0.16425000000000978 44.51925 3.8083750000000087 Q44.51925 7.452625000000012 41.966375 10.00550000000001 Q39.4135 12.55825000000001 35.76925 12.55825000000001 Z M84.23075 12.55825000000001 Q80.5865 12.55825000000001 78.033625 10.00550000000001 Q75.48075 7.452625000000012 75.48075 3.8083750000000087 Q75.48075 0.16425000000000978 78.033625 -2.3886249999999905 Q80.5865 -4.941499999999991 84.23075 -4.941499999999991 Q87.874875 -4.941499999999991 90.42775 -2.3886249999999905 Q92.980625 0.16425000000000978 92.980625 3.8083750000000087 Q92.980625 7.452625000000012 90.42775 10.00550000000001 Q87.874875 12.55825000000001 84.23075 12.55825000000001 Z M30.076875 -66.48012499999999  42.75 -39.94149999999999 H76.8365 Q77.26925 -39.94149999999999 77.60575 -40.15787499999999 Q77.942375 -40.37424999999999 78.18275 -40.75887499999999 L91.596125 -65.13387499999999 Q91.884625 -65.66274999999999 91.64425 -66.07137499999999 Q91.403875 -66.48012499999999 90.826875 -66.48012499999999 H30.076875 Z M26.48075 -73.97987499999999 H95.903625 Q98.970875 -73.97987499999999 100.543 -71.36937499999999 Q102.115125 -68.75874999999999 100.692 -66.03762499999999 L84.673 -37.01862499999999 Q83.442125 -34.85512499999999 81.418125 -33.64837499999999 Q79.394125 -32.44174999999999 76.98075 -32.44174999999999 H40.5 L34.7115 -21.864749999999987 Q34.326875 -21.28774999999999 34.6875 -20.61462499999999 Q35.048125 -19.94149999999999 35.76925 -19.94149999999999 H92.980625 V-12.441749999999992 H35.76925 Q30.769375 -12.441749999999992 28.254875 -16.754124999999988 Q25.7405 -21.066624999999988 28.077 -25.36462499999999 L35.21175 -38.19162499999999 L17.019375 -76.48012499999999 H7.50025 V-83.97987499999999 H21.73075 L26.48075 -73.97987499999999 Z"/></g><g id="Thin-M" transform="matrix(1 0 0 1 802.565 1126)"><path d="M36.5385 10.34700000000001 Q33.375 10.34700000000001 31.20675 8.178625000000011 Q29.038375 6.0103750000000105 29.038375 2.8468750000000114 Q29.038375 -0.3164999999999907 31.20675 -2.484749999999991 Q33.375 -4.653124999999989 36.5385 -4.653124999999989 Q39.701875 -4.653124999999989 41.87025 -2.484749999999991 Q44.0385 -0.3164999999999907 44.0385 2.8468750000000114 Q44.0385 6.0103750000000105 41.87025 8.178625000000011 Q39.701875 10.34700000000001 36.5385 10.34700000000001 Z M83.4615 10.34700000000001 Q80.298125 10.34700000000001 78.12975 8.178625000000011 Q75.9615 6.0103750000000105 75.9615 2.8468750000000114 Q75.9615 -0.3164999999999907 78.12975 -2.484749999999991 Q80.298125 -4.653124999999989 83.4615 -4.653124999999989 Q86.625 -4.653124999999989 88.79325 -2.484749999999991 Q90.961625 -0.3164999999999907 90.961625 2.8468750000000114 Q90.961625 6.0103750000000105 88.79325 8.178625000000011 Q86.625 10.34700000000001 83.4615 10.34700000000001 Z M29.403875 -67.72999999999999  42.75 -39.65312499999999 H75.923125 Q76.7885 -39.65312499999999 77.4615 -40.08574999999999 Q78.134625 -40.51849999999999 78.615375 -41.28762499999999 L91.69225 -65.03774999999999 Q92.26925 -66.09537499999999 91.7885 -66.91262499999999 Q91.30775 -67.72999999999999 90.153875 -67.72999999999999 H29.403875 Z M26.9615 -72.72999999999999 H92.05775 Q95.317375 -72.72999999999999 96.961625 -70.07137499999999 Q98.60575 -67.41274999999999 97.134625 -64.59537499999999 L82.846125 -38.55687499999999 Q81.759625 -36.72999999999999 80.024 -35.69149999999999 Q78.2885 -34.65299999999999 76.2115 -34.65299999999999 H40.5 L34.423125 -23.49924999999999 Q33.653875 -22.34537499999999 34.375 -20.99924999999999 Q35.096125 -19.65312499999999 36.5385 -19.65312499999999 H90.961625 V-14.652999999999992 H36.5385 Q32.1635 -14.652999999999992 30.009625 -18.34049999999999 Q27.85575 -22.02812499999999 29.903875 -25.74924999999999 L37.423 -39.15312499999999 L19.038375 -77.72999999999999 H10.0 V-82.72999999999999 H22.2115 L26.9615 -72.72999999999999 Z"/></g><g id="Ultralight-M" transform="matrix(1 0 0 1 506.415 1126)"><path d="M37.0 9.02000000000001 Q34.125 9.02000000000001 32.1875 7.08250000000001 Q30.25 5.14500000000001 30.25 2.2700000000000102 Q30.25 -0.6049999999999898 32.1875 -2.5424999999999898 Q34.125 -4.47999999999999 37.0 -4.47999999999999 Q39.875 -4.47999999999999 41.8125 -2.5424999999999898 Q43.75 -0.6049999999999898 43.75 2.2700000000000102 Q43.75 5.14500000000001 41.8125 7.08250000000001 Q39.875 9.02000000000001 37.0 9.02000000000001 Z M83.0 9.02000000000001 Q80.125 9.02000000000001 78.1875 7.08250000000001 Q76.25 5.14500000000001 76.25 2.2700000000000102 Q76.25 -0.6049999999999898 78.1875 -2.5424999999999898 Q80.125 -4.47999999999999 83.0 -4.47999999999999 Q85.875 -4.47999999999999 87.8125 -2.5424999999999898 Q89.75 -0.6049999999999898 89.75 2.2700000000000102 Q89.75 5.14500000000001 87.8125 7.08250000000001 Q85.875 9.02000000000001 83.0 9.02000000000001 Z M29.0 -68.47999999999999  42.75 -39.47999999999999 H75.375 Q76.5 -39.47999999999999 77.375 -40.04249999999999 Q78.25 -40.60499999999999 78.875 -41.60499999999999 L91.75 -64.97999999999999 Q92.5 -66.35499999999999 91.875 -67.41749999999999 Q91.25 -68.47999999999999 89.75 -68.47999999999999 H29.0 Z M27.25 -71.97999999999999 H89.75 Q93.125 -71.97999999999999 94.8125 -69.29249999999999 Q96.5 -66.60499999999999 95.0 -63.72999999999999 L81.75 -39.47999999999999 Q80.75 -37.85499999999999 79.1875 -36.91749999999999 Q77.625 -35.97999999999999 75.75 -35.97999999999999 H40.5 L34.25 -24.47999999999999 Q33.25 -22.97999999999999 34.1875 -21.22999999999999 Q35.125 -19.47999999999999 37.0 -19.47999999999999 H89.75 V-15.97999999999999 H37.0 Q33.0 -15.97999999999999 31.0625 -19.29249999999999 Q29.125 -22.60499999999999 31.0 -25.97999999999999 L38.75 -39.72999999999999 L20.25 -78.47999999999999 H11.5 V-81.97999999999999 H22.5 L27.25 -71.97999999999999 Z"/></g><g id="Bold-S" transform="matrix(1 0 0 1 2294.23 696)"><path d="M26.0160915 4.121375000000013 Q23.07825 4.121375000000013 21.007125000000002 2.0293415000000135 Q18.936 -0.06279062499998744 18.936 -3.0005334999999853 Q18.936 -5.938374999999986 21.0280335 -8.009499999999989 Q23.120165625000002 -10.080624999999987 26.0579085 -10.080624999999987 Q28.99575 -10.080624999999987 31.066875000000003 -7.988591499999988 Q33.138 -5.896459374999985 33.138 -2.958716499999989 Q33.138 -0.020874999999987764 31.045966500000002 2.0502500000000126 Q28.953834375 4.121375000000013 26.0160915 4.121375000000013 Z M68.62209150000001 4.121375000000013 Q65.68425 4.121375000000013 63.613125000000004 2.0293415000000135 Q61.542 -0.06279062499998744 61.542 -3.0005334999999853 Q61.542 -5.938374999999986 63.6340335 -8.009499999999989 Q65.726165625 -10.080624999999987 68.6639085 -10.080624999999987 Q71.60175000000001 -10.080624999999987 73.672875 -7.988591499999988 Q75.744 -5.896459374999985 75.744 -2.958716499999989 Q75.744 -0.020874999999987764 73.6519665 2.0502500000000126 Q71.55983437500001 4.121375000000013 68.62209150000001 4.121375000000013 Z M27.41775 -55.05362499999998  33.33525 -40.65437499999999 H62.626875000000005 Q62.626875000000005 -40.65437499999999 62.626875000000005 -40.65437499999999 Q62.626875000000005 -40.65437499999999 62.626875000000005 -40.65437499999999 L68.14987500000001 -55.05362499999998 Q68.14987500000001 -55.05362499999998 68.14987500000001 -55.05362499999998 Q68.14987500000001 -55.05362499999998 68.14987500000001 -55.05362499999998 H27.41775 Z M22.782375000000002 -65.11337499999999 H75.25087500000001 Q78.369101625 -65.11337499999999 79.9166265 -62.54912499999999 Q81.46425 -59.98487499999999 80.0835 -57.22337499999999 L71.367712875 -35.63880062499999 Q70.319625 -33.35612499999999 68.25352987500001 -31.926062499999986 Q66.18743475 -30.495999999999988 63.613125000000004 -30.495999999999988 H32.94075 L29.686125 -24.874374999999986 Q29.686125 -24.874374999999986 29.686125 -24.874374999999986 Q29.686125 -24.874374999999986 29.686125 -24.874374999999986 H77.223375 V-14.814624999999989 H27.2205 Q21.894750000000002 -14.814624999999989 19.478437500000002 -19.169214624999988 Q17.062125 -23.52370562499999 19.626375 -27.73449999999999 L24.459 -35.82174999999999 L12.328125 -64.52162499999999 H3.2546250000000003 V-74.581375 H18.73875 L22.782375000000002 -65.11337499999999 Z"/></g><g id="Semibold-S" transform="matrix(1 0 0 1 1998.1 696)"><path d="M26.0160915 3.478241375000014 Q23.07825 3.478241375000014 21.007125000000002 1.386109250000013 Q18.936 -0.7059242499999865 18.936 -3.6437657499999876 Q18.936 -6.581508624999987 21.0280335 -8.652633624999986 Q23.120165625000002 -10.723758624999984 26.0579085 -10.723758624999984 Q28.99575 -10.723758624999984 31.066875000000003 -8.631725124999988 Q33.138 -6.539691624999989 33.138 -3.601850124999986 Q33.138 -0.664008624999985 31.045966500000002 1.4071163750000135 Q28.953834375 3.478241375000014 26.0160915 3.478241375000014 Z M68.62209150000001 3.478241375000014 Q65.68425 3.478241375000014 63.613125000000004 1.386109250000013 Q61.542 -0.7059242499999865 61.542 -3.6437657499999876 Q61.542 -6.581508624999987 63.6340335 -8.652633624999986 Q65.726165625 -10.723758624999984 68.6639085 -10.723758624999984 Q71.60175000000001 -10.723758624999984 73.672875 -8.631725124999988 Q75.744 -6.539691624999989 75.744 -3.601850124999986 Q75.744 -0.664008624999985 73.6519665 1.4071163750000135 Q71.55983437500001 3.478241375000014 68.62209150000001 3.478241375000014 Z M26.345794875 -55.69675862499999  33.24944625 -39.32520587499999 H62.71267875 Q62.71267875 -39.32520587499999 62.71267875 -39.32520587499999 Q62.71267875 -39.32520587499999 62.71267875 -39.32520587499999 L69.350437125 -55.69675862499999 Q69.350437125 -55.69675862499999 69.350437125 -55.69675862499999 Q69.350437125 -55.69675862499999 69.350437125 -55.69675862499999 H26.345794875 Z M22.396455375 -64.470241375 H76.494339 Q78.85719675 -64.470241375 80.010616125 -62.54912499999999 Q81.164134125 -60.62800862499998 80.16930375 -58.55254412499998 L70.46736525000001 -35.295782874999986 Q69.5049825 -33.14171424999999 67.58672625 -31.818857124999987 Q65.66847 -30.495999999999988 63.27010725000001 -30.495999999999988 H32.211812625 L28.571268000000003 -24.23124137499999 Q28.571268000000003 -24.23124137499999 28.571268000000003 -24.23124137499999 Q28.571268000000003 -24.23124137499999 28.571268000000003 -24.23124137499999 H76.58024137500001 V-15.45775862499999 H27.2205 Q22.366374750000002 -15.45775862499999 20.121571125 -19.46933049999999 Q17.8767675 -23.480803749999986 20.226705374999998 -27.39148224999999 L25.187937375 -35.82174999999999 L12.714044625000001 -65.16475862499999 H3.8977586250000003 V-73.93824137499999 H18.352830375 L22.396455375 -64.470241375 Z"/></g><g id="Medium-S" transform="matrix(1 0 0 1 1701.85 696)"><path d="M26.0160915 2.9957678750000127 Q23.07825 2.9957678750000127 21.007125000000002 0.9037343750000133 Q18.936 -1.1883977499999858 18.936 -4.126140624999987 Q18.936 -7.063982124999988 21.0280335 -9.135107124999987 Q23.120165625000002 -11.206232124999989 26.0579085 -11.206232124999989 Q28.99575 -11.206232124999989 31.066875000000003 -9.114198624999986 Q33.138 -7.022066499999987 33.138 -4.0843236249999855 Q33.138 -1.146482124999988 31.045966500000002 0.9246428750000142 Q28.953834375 2.9957678750000127 26.0160915 2.9957678750000127 Z M68.62209150000001 2.9957678750000127 Q65.68425 2.9957678750000127 63.613125000000004 0.9037343750000133 Q61.542 -1.1883977499999858 61.542 -4.126140624999987 Q61.542 -7.063982124999988 63.6340335 -9.135107124999987 Q65.726165625 -11.206232124999989 68.6639085 -11.206232124999989 Q71.60175000000001 -11.206232124999989 73.672875 -9.114198624999986 Q75.744 -7.022066499999987 75.744 -4.0843236249999855 Q75.744 -1.146482124999988 73.6519665 0.9246428750000142 Q71.55983437500001 2.9957678750000127 68.62209150000001 2.9957678750000127 Z M25.541705250000003 -56.179232124999984  33.185142750000004 -38.32810712499999 H62.77698225000001 Q62.77698225000001 -38.32810712499999 62.77698225000001 -38.32810712499999 Q62.77698225000001 -38.32810712499999 62.77698225000001 -38.32810712499999 L70.25098200000001 -56.179232124999984 Q70.25098200000001 -56.179232124999984 70.25098200000001 -56.179232124999984 Q70.25098200000001 -56.179232124999984 70.25098200000001 -56.179232124999984 H25.541705250000003 Z M22.106991 -63.98776787499999 H77.427035625 Q79.22329275 -63.98776787499999 80.08113300000001 -62.54912499999999 Q80.93897325 -61.11048212499999 80.23360725 -59.54964287499999 L69.791882625 -35.03847024999999 Q68.893902 -32.98095549999999 67.086598875 -31.738477749999987 Q65.27929575 -30.495999999999988 63.012794625000005 -30.495999999999988 H31.665035625 L27.735125250000003 -23.748767874999984 Q27.735125250000003 -23.748767874999984 27.735125250000003 -23.748767874999984 Q27.735125250000003 -23.748767874999984 27.735125250000003 -23.748767874999984 H76.097767875 V-15.940232124999987 H27.2205 Q22.72024125 -15.940232124999987 20.604044625 -19.694491374999988 Q18.487848 -23.44865199999999 20.6769285 -27.13416962499999 L25.734714375000003 -35.82174999999999 L13.003509000000001 -65.64723212499999 H4.380232125 V-73.45576787499999 H18.063366 L22.106991 -63.98776787499999 Z"/></g><g id="Regular-S" transform="matrix(1 0 0 1 1405.73 696)"><path d="M26.0160915 2.6420000000000137 Q23.07825 2.6420000000000137 21.007125000000002 0.5499665000000125 Q18.936 -1.5421656249999884 18.936 -4.479908499999986 Q18.936 -7.417749999999987 21.0280335 -9.488874999999986 Q23.120165625000002 -11.559999999999988 26.0579085 -11.559999999999988 Q28.99575 -11.559999999999988 31.066875000000003 -9.467966499999989 Q33.138 -7.375834374999986 33.138 -4.438091499999988 Q33.138 -1.500249999999987 31.045966500000002 0.5708750000000133 Q28.953834375 2.6420000000000137 26.0160915 2.6420000000000137 Z M68.62209150000001 2.6420000000000137 Q65.68425 2.6420000000000137 63.613125000000004 0.5499665000000125 Q61.542 -1.5421656249999884 61.542 -4.479908499999986 Q61.542 -7.417749999999987 63.6340335 -9.488874999999986 Q65.726165625 -11.559999999999988 68.6639085 -11.559999999999988 Q71.60175000000001 -11.559999999999988 73.672875 -9.467966499999989 Q75.744 -7.375834374999986 75.744 -4.438091499999988 Q75.744 -1.500249999999987 73.6519665 0.5708750000000133 Q71.55983437500001 2.6420000000000137 68.62209150000001 2.6420000000000137 Z M24.952125000000002 -56.53299999999999  33.138 -37.59699999999999 H62.824125 Q62.824125 -37.59699999999999 62.824125 -37.59699999999999 Q62.824125 -37.59699999999999 62.824125 -37.59699999999999 L70.911375 -56.53299999999999 Q70.911375 -56.53299999999999 70.911375 -56.53299999999999 Q70.911375 -56.53299999999999 70.911375 -56.53299999999999 H24.952125000000002 Z M21.894750000000002 -63.633999999999986 H78.111 Q79.49175000000001 -63.633999999999986 80.1328125 -62.54912499999999 Q80.773875 -61.46424999999999 80.28075 -60.28074999999998 L69.296587875 -34.849800624999986 Q68.44575 -32.862999999999985 66.7198125 -31.67949999999999 Q64.993875 -30.495999999999988 62.824125 -30.495999999999988 H31.264125 L27.121875000000003 -23.39499999999999 Q27.121875000000003 -23.39499999999999 27.121875000000003 -23.39499999999999 Q27.121875000000003 -23.39499999999999 27.121875000000003 -23.39499999999999 H75.744 V-16.293999999999986 H27.2205 Q22.979625000000002 -16.293999999999986 20.9578125 -19.85958962499999 Q18.936 -23.425080624999985 21.007125000000002 -26.94549999999999 L26.135625 -35.82174999999999 L13.21575 -66.00099999999999 H4.734 V-73.10199999999999 H17.851125 L21.894750000000002 -63.633999999999986 Z"/></g><g id="Light-S" transform="matrix(1 0 0 1 1109.75 696)"><path d="M26.62302975 0.8969292500000137 Q24.064598625000002 0.8969292500000137 22.296942750000003 -0.8916351249999881 Q20.529286875 -2.6801994999999863 20.529286875 -5.238630624999988 Q20.529286875 -7.797061749999987 22.31785125 -9.56471762499999 Q24.10651425 -11.332373499999989 26.664945375000002 -11.332373499999989 Q29.2233765 -11.332373499999989 30.991032375 -9.543809124999985 Q32.75868825 -7.755244749999989 32.75868825 -5.196714999999987 Q32.75868825 -2.6382838749999866 30.97002525 -0.8706279999999875 Q29.181460875 0.8969292500000137 26.62302975 0.8969292500000137 Z M68.015054625 0.8969292500000137 Q65.4566235 0.8969292500000137 63.688967625000004 -0.8916351249999881 Q61.92131175 -2.6801994999999863 61.92131175 -5.238630624999988 Q61.92131175 -7.797061749999987 63.70997475 -9.56471762499999 Q65.498539125 -11.332373499999989 68.05697025 -11.332373499999989 Q70.615401375 -11.332373499999989 72.38305725000001 -9.543809124999985 Q74.15071312500001 -7.755244749999989 74.15071312500001 -5.196714999999987 Q74.15071312500001 -2.6382838749999866 72.36214875 -0.8706279999999875 Q70.57348575 0.8969292500000137 68.015054625 0.8969292500000137 Z M24.421029375000003 -57.51934862499999  33.138 -37.36937349999999 H62.103373500000004 Q62.44481325 -37.36937349999999 62.71031175 -37.54009337499999 Q62.975908875 -37.71081324999999 63.16556475 -38.014282374999986 L70.987217625 -56.457157374999994 Q71.214844125 -56.87443974999999 71.02518825 -57.19684487499998 Q70.835532375 -57.51934862499999 70.380279375 -57.51934862499999 H24.421029375000003 Z M22.27406175 -62.647651374999995 H75.076210125 Q76.60864537500001 -62.647651374999995 77.30661450000001 -61.52490437499999 Q78.00458362500001 -60.402058749999995 77.473488 -59.14271612499999 L67.855084875 -36.06377574999999 Q67.117961625 -34.34247362499999 65.619650625 -33.291722874999984 Q64.121339625 -32.24107074999999 62.21718675 -32.24107074999999 H31.264125 L26.894248500000003 -24.684817749999986 Q26.590779375 -24.229564749999987 26.8753125 -23.69846912499999 Q27.159845625 -23.16737349999999 27.72881325 -23.16737349999999 H74.15071312500001 V-18.03907074999999 H27.82743825 Q24.079786875 -18.03907074999999 22.342408875 -21.11143674999999 Q20.6051295 -24.183802749999984 22.448628000000003 -27.248969124999988 L27.880695750000005 -36.580472124999986 L14.809036875 -66.98734862499998 H6.706598625000001 V-72.115651375 H18.230436750000003 L22.27406175 -62.647651374999995 Z"/></g><g id="Thin-S" transform="matrix(1 0 0 1 814.015 696)"><path d="M27.229869375000003 -0.8477469999999858 Q25.05075 -0.8477469999999858 23.58656325 -2.332940874999988 Q22.122277874999998 -3.818134749999988 22.122277874999998 -5.997254124999987 Q22.122277874999998 -8.176373499999986 23.607471750000002 -9.64056024999999 Q25.092665625000002 -11.104845624999985 27.271784999999998 -11.104845624999985 Q29.450904375000004 -11.104845624999985 30.91518975 -9.619651749999985 Q32.3793765 -8.134457874999988 32.3793765 -5.955338499999986 Q32.3793765 -3.7762191249999866 30.894182625000003 -2.312032374999987 Q29.409087375 -0.8477469999999858 27.229869375000003 -0.8477469999999858 Z M67.408215 -0.8477469999999858 Q65.229095625 -0.8477469999999858 63.764810250000004 -2.332940874999988 Q62.3006235 -3.818134749999988 62.3006235 -5.997254124999987 Q62.3006235 -8.176373499999986 63.785817375 -9.64056024999999 Q65.270912625 -11.104845624999985 67.450130625 -11.104845624999985 Q69.62925 -11.104845624999985 71.09343675000001 -9.619651749999985 Q72.557722125 -8.134457874999988 72.557722125 -5.955338499999986 Q72.557722125 -3.7762191249999866 71.07252825 -2.312032374999987 Q69.58733437500001 -0.8477469999999858 67.408215 -0.8477469999999858 Z M23.890032375 -58.505499999999984  33.138 -37.14184562499999 H61.382720625000005 Q62.0655015 -37.14184562499999 62.5964985 -37.48318674999999 Q63.127594125 -37.82462649999999 63.506905875 -38.43146612499999 L71.06306025 -56.38131474999999 Q71.51831325 -57.21578087499999 71.1390015 -57.860591124999985 Q70.75968975 -58.505499999999984 69.849282375 -58.505499999999984 H23.890032375 Z M22.6533735 -61.66149999999999 H72.04181475 Q73.726033875 -61.66149999999999 74.480909625 -60.500782374999986 Q75.23568675 -59.34006474999998 74.666719125 -58.004780874999994 L66.413779125 -37.27745499999999 Q65.790469125 -35.82174999999999 64.51968600000001 -34.90374849999999 Q63.2490015 -33.98574699999999 61.610248500000004 -33.98574699999999 H31.264125 L26.666720625 -25.974438249999984 Q26.059782375 -25.064030874999986 26.62875 -24.001938249999988 Q27.197717625000003 -22.93984562499999 28.3357515 -22.93984562499999 H72.557722125 V-19.783746999999988 H28.4343765 Q25.179751500000002 -19.783746999999988 23.726906625 -22.363086624999987 Q22.27406175 -24.94242624999999 23.890032375 -27.552438249999987 L29.625372000000002 -37.339095624999985 L16.402027874999998 -67.97349999999999 H8.679 V-71.1295 H18.609748500000002 L22.6533735 -61.66149999999999 Z"/></g><g id="Ultralight-S" transform="matrix(1 0 0 1 517.792 696)"><path d="M27.5940915 -1.8947499999999877 Q25.642500000000002 -1.8947499999999877 24.360375 -3.1977834999999857 Q23.07825 -4.500915624999987 23.07825 -6.4524084999999864 Q23.07825 -8.403999999999986 24.3812835 -9.686124999999986 Q25.684415625000003 -10.968249999999987 27.6359085 -10.968249999999987 Q29.587500000000002 -10.968249999999987 30.869625000000003 -9.665216499999989 Q32.15175 -8.362084374999988 32.15175 -6.410591499999988 Q32.15175 -4.458999999999985 30.848716500000002 -3.1768749999999866 Q29.545584375 -1.8947499999999877 27.5940915 -1.8947499999999877 Z M67.04409150000001 -1.8947499999999877 Q65.0925 -1.8947499999999877 63.810375 -3.1977834999999857 Q62.52825 -4.500915624999987 62.52825 -6.4524084999999864 Q62.52825 -8.403999999999986 63.831283500000005 -9.686124999999986 Q65.134415625 -10.968249999999987 67.0859085 -10.968249999999987 Q69.03750000000001 -10.968249999999987 70.319625 -9.665216499999989 Q71.60175000000001 -8.362084374999988 71.60175000000001 -6.410591499999988 Q71.60175000000001 -4.458999999999985 70.2987165 -3.1768749999999866 Q68.995584375 -1.8947499999999877 67.04409150000001 -1.8947499999999877 Z M23.571375 -59.09724999999999  33.138 -37.00524999999999 H60.950250000000004 Q61.837875000000004 -37.00524999999999 62.52825 -37.44906249999999 Q63.218625 -37.89287499999999 63.71175 -38.68187499999999 L71.108625 -56.33574999999999 Q71.70037500000001 -57.42062499999999 71.20725 -58.25893749999999 Q70.71412500000001 -59.09724999999999 69.530625 -59.09724999999999 H23.571375 Z M22.881 -61.069749999999985 H70.221 Q71.99625 -61.069749999999985 72.78525 -59.88624999999999 Q73.57425 -58.702749999999995 72.9825 -57.32199999999999 L65.548837875 -38.005800624999985 Q64.993875 -36.70937499999999 63.8596875 -35.87106249999999 Q62.725500000000004 -35.032749999999986 61.246125 -35.032749999999986 H31.264125 L26.530125 -26.748249999999985 Q25.741125 -25.56474999999999 26.480812500000003 -24.18399999999999 Q27.2205 -22.80324999999999 28.699875000000002 -22.80324999999999 H71.60175000000001 V-20.830749999999988 H28.7985 Q25.839750000000002 -20.830749999999988 24.557625 -23.11421462499999 Q23.2755 -25.39758062499999 24.754875000000002 -27.73449999999999 L30.672375000000002 -37.79424999999999 L17.358 -68.56524999999999 H9.8625 V-70.53774999999999 H18.837375 L22.881 -61.069749999999985 Z"/></g></g></svg>