<svg xmlns="http://www.w3.org/2000/svg" version="1.1" width="3300" height="2000"><g id="Notes"><style>
    text {
      font-family: monospace;
      text-anchor: middle;
    }
    text.emphasis {
      font-weight:bold;
    }
    text.lanchor {
      text-anchor: start;
    }
  </style><rect height="2200" id="artboard" fill="white" width="3300" x="0" y="0"/><line id="" style="fill:none;stroke:black;stroke-width:0.5;" x1="263" x2="3036" y1="292" y2="292"/><text class="lanchor emphasis" transform="matrix(1 0 0 1 263 322)">Weight/Scale Variations</text><text transform="matrix(1 0 0 1 559.711 322)">Ultralight</text><text transform="matrix(1 0 0 1 856.422 322)">Thin</text><text transform="matrix(1 0 0 1 1153.13 322)">Light</text><text transform="matrix(1 0 0 1 1449.84 322)">Regular</text><text transform="matrix(1 0 0 1 1746.56 322)">Medium</text><text transform="matrix(1 0 0 1 2043.27 322)">Semibold</text><text transform="matrix(1 0 0 1 2339.98 322)">Bold</text><text transform="matrix(1 0 0 1 2636.69 322)">Heavy</text><text transform="matrix(1 0 0 1 2933.4 322)">Black</text><text id="template-version" style="text-anchor: end;" transform="matrix(1 0 0 1 3036 1933)">Template v.1.0</text><text class="lanchor" transform="matrix(1 0 0 1 263 726)">Small</text><text class="lanchor" transform="matrix(1 0 0 1 263 1156)">Medium</text><text class="lanchor" transform="matrix(1 0 0 1 263 1586)">Large</text></g><g id="Guides"><g id="H-reference" style="fill:#27AAE1;stroke:none;" transform="matrix(1 0 0 1 339 696)"><path d="M 54.9316 0 L 57.666 0 L 30.5664 -70.459 L 28.0762 -70.459 L 0.976562 0 L 3.66211 0 L 12.9395 -24.4629 L 45.7031 -24.4629 Z M 29.1992 -67.0898 L 29.4434 -67.0898 L 44.8242 -26.709 L 13.8184 -26.709 Z"/></g><line id="Baseline-S" style="fill:none;stroke:#27AAE1;opacity:1;stroke-width:0.577;" x1="263" x2="3036" y1="696" y2="696"/><line id="Capline-S" style="fill:none;stroke:#27AAE1;opacity:1;stroke-width:0.577;" x1="263" x2="3036" y1="625.541" y2="625.541"/><g id="H-reference" style="fill:#27AAE1;stroke:none;" transform="matrix(1 0 0 1 339 1126)"><path d="M 54.9316 0 L 57.666 0 L 30.5664 -70.459 L 28.0762 -70.459 L 0.976562 0 L 3.66211 0 L 12.9395 -24.4629 L 45.7031 -24.4629 Z M 29.1992 -67.0898 L 29.4434 -67.0898 L 44.8242 -26.709 L 13.8184 -26.709 Z"/></g><line id="Baseline-M" style="fill:none;stroke:#27AAE1;opacity:1;stroke-width:0.577;" x1="263" x2="3036" y1="1126" y2="1126"/><line id="Capline-M" style="fill:none;stroke:#27AAE1;opacity:1;stroke-width:0.577;" x1="263" x2="3036" y1="1055.54" y2="1055.54"/><g id="H-reference" style="fill:#27AAE1;stroke:none;" transform="matrix(1 0 0 1 339 1556)"><path d="M 54.9316 0 L 57.666 0 L 30.5664 -70.459 L 28.0762 -70.459 L 0.976562 0 L 3.66211 0 L 12.9395 -24.4629 L 45.7031 -24.4629 Z M 29.1992 -67.0898 L 29.4434 -67.0898 L 44.8242 -26.709 L 13.8184 -26.709 Z"/></g><line id="Baseline-L" style="fill:none;stroke:#27AAE1;opacity:1;stroke-width:0.577;" x1="263" x2="3036" y1="1556" y2="1556"/><line id="Capline-L" style="fill:none;stroke:#27AAE1;opacity:1;stroke-width:0.577;" x1="263" x2="3036" y1="1485.54" y2="1485.54"/><rect height="119.336" id="left-margin" style="fill:darkred;stroke:none;opacity:0.4;" width="12.4512" x="1394.06" y="1030.79"/><rect height="119.336" id="right-margin" style="fill:darkgreen;stroke:none;opacity:0.4;" width="12.4512" x="1502.5112" y="1030.79"/><rect x="1406.5112" y="1045" width="96" height="96" fill="none" stroke="blue" stroke-dasharray="5"/><rect x="1394.06" y="1030.79" width="120.9024" height="119.336" fill="none" stroke="blue"/></g><g id="Symbols"><g id="Bold-L" transform="matrix(1 0 0 1 2266 1556)"><path d="M36.92625 11.693750000000016 H56.92125 V-29.908749999999984 H97.87875 V11.693750000000016 H117.87375 V-49.09749999999998 L77.4 -79.4125 L36.92625 -49.043803749999995 V11.693750000000016 Z M21.76875 26.851250000000014 V-56.67624999999998 L77.4 -98.44 L133.1925 -56.67624999999998 V26.851250000000014 H84.495 V-16.524999999999984 H70.305 V26.851250000000014 H21.76875 Z"/></g><g id="Semibold-L" transform="matrix(1 0 0 1 1970.27 1556)"><path d="M36.29527875 12.324721250000017 H58.113048750000004 V-28.71695124999998 H96.68695125 V12.324721250000017 H118.50472125 V-49.37791374999999 L77.4 -80.18359749999999 L36.29527875 -49.34759874999999 V12.324721250000017 Z M23.52137625 25.098623750000016 V-55.764864999999986 L77.4 -96.19668999999999 L131.36973 -55.764864999999986 V25.098623750000016 H84.91570125000001 V-16.945701249999985 H69.88429875 V25.098623750000016 H23.52137625 Z"/></g><g id="Medium-L" transform="matrix(1 0 0 1 1674.31 1556)"><path d="M35.82201 12.797990000000016 H59.00701875 V-27.822981249999984 H95.79298125000001 V12.797990000000016 H118.97798999999999 V-49.588183749999985 L77.4 -80.76216249999999 L35.82201 -49.575445 V12.797990000000016 Z M24.8360475 23.783952500000016 V-55.08132624999999 L77.4 -94.51388499999999 L130.0026525 -55.08132624999999 V23.783952500000016 H85.23110625000001 V-17.261106249999983 H69.56889375 V23.783952500000016 H24.8360475 Z"/></g><g id="Regular-L" transform="matrix(1 0 0 1 1378.56 1556)"><path d="M35.475 13.145000000000014 H59.6625 V-27.16749999999999 H95.1375 V13.145000000000014 H119.325 V-49.74249999999999 L77.4 -81.18624999999999 L35.475 -49.74249999999999 V13.145000000000014 Z M25.8 22.820000000000014 V-54.579999999999984 L77.4 -93.28 L129.0 -54.579999999999984 V22.820000000000014 H85.4625 V-17.492499999999986 H69.3375 V22.820000000000014 H25.8 Z"/></g><g id="Light-L" transform="matrix(1 0 0 1 1082.77 1556)"><path d="M36.34333125 12.276668750000017 H61.461243749999994 V-27.22958124999998 H93.33875625 V12.276668750000017 H118.45666875 V-49.30825374999999 L77.4 -80.25583749999998 L36.34333125 -49.329055 V12.276668750000017 Z M29.02516125 19.594838750000015 V-52.967338749999996 L77.4 -89.37242874999998 L125.77483875 -52.967338749999996 V19.594838750000015 H86.0207475 V-19.91141124999998 H68.7792525 V19.594838750000015 H29.02516125 Z"/></g><g id="Thin-L" transform="matrix(1 0 0 1 787.282 1556)"><path d="M37.211501250000005 11.408498750000014 H63.259665 V-27.291501249999982 H91.540335 V11.408498750000014 H117.58849875 V-48.87416874999998 L77.4 -79.32574749999999 L37.211501250000005 -48.91560999999999 V11.408498750000014 Z M32.25 16.370000000000015 V-51.35499999999999 L77.4 -85.46566374999999 L122.55 -51.35499999999999 V16.370000000000015 H86.57883375 V-22.329999999999984 H68.22116625 V16.370000000000015 H32.25 Z"/></g><g id="Ultralight-L" transform="matrix(1 0 0 1 491.205 1556)"><path d="M37.7325 10.887500000000014 H64.33875 V-27.328749999999985 H90.46125 V10.887500000000014 H117.06750000000001 V-48.61374999999998 L77.4 -78.76749999999998 L37.7325 -48.66744624999998 V10.887500000000014 Z M34.185 14.435000000000016 V-50.38749999999999 L77.4 -83.12124999999999 L120.61500000000001 -50.38749999999999 V14.435000000000016 H86.91375000000001 V-23.781249999999986 H67.88625 V14.435000000000016 H34.185 Z"/></g><g id="Bold-M" transform="matrix(1 0 0 1 2281.8 1126)"><path d="M31.5 -1.7299999999999898 H42.125 V-33.10499999999999 H77.875 V-1.7299999999999898 H88.5 V-44.47999999999999 L60.0 -65.85499999999999 L31.5 -44.47999999999999 V-1.7299999999999898 Z M15.75 14.02000000000001 V-52.35499999999999 L60.0 -85.60499999999999 L104.25 -52.396624999999986 V14.02000000000001 H64.0 V-19.22999999999999 H56.0 V14.02000000000001 H15.75 Z"/></g><g id="Semibold-M" transform="matrix(1 0 0 1 1985.97 1126)"><path d="M30.847875 -1.0778749999999881 H43.374875 V-31.855124999999987 H76.625125 V-1.0778749999999881 H89.152125 V-44.806124999999994 L60.0 -66.67012499999998 L30.847875 -44.806124999999994 V-1.0778749999999881 Z M17.59775 12.17225000000001 V-51.431124999999994 L60.0 -83.26825 L102.40225 -51.45474999999999 V12.17225000000001 H64.43475 V-19.66474999999999 H55.56525 V12.17225000000001 H17.59775 Z"/></g><g id="Medium-M" transform="matrix(1 0 0 1 1689.91 1126)"><path d="M30.35875 -0.5887499999999903 H44.3125 V-30.91749999999999 H75.6875 V-0.5887499999999903 H89.64125 V-45.050625 L60.0 -67.28162499999999 L30.35875 -45.050625 V-0.5887499999999903 Z M18.983625 10.78637500000001 V-50.738125 L60.0 -81.51537499999999 L101.016375 -50.74812499999999 V10.78637500000001 H64.760875 V-19.99087499999999 H55.239125 V10.78637500000001 H18.983625 Z"/></g><g id="Regular-M" transform="matrix(1 0 0 1 1394.06 1126)"><path d="M30.0 -0.22999999999998977 H45.0 V-30.22999999999999 H75.0 V-0.22999999999998977 H90.0 V-45.22999999999999 L60.0 -67.72999999999999 L30.0 -45.22999999999999 V-0.22999999999998977 Z M20.0 9.77000000000001 V-50.22999999999999 L60.0 -80.22999999999999 L100.0 -50.22999999999999 V9.77000000000001 H65.0 V-20.22999999999999 H55.0 V9.77000000000001 H20.0 Z"/></g><g id="Light-M" transform="matrix(1 0 0 1 1098.18 1126)"><path d="M30.0 -0.22999999999998977 H46.730875 V-29.94149999999999 H73.269125 V-0.22999999999998977 H90.0 V-45.22999999999999 L60.0 -67.82612499999999 L30.0 -45.22999999999999 V-0.22999999999998977 Z M22.500125 7.26987500000001 V-48.97987499999999 L60.0 -77.200875 L97.499875 -48.97987499999999 V7.26987500000001 H65.76925 V-22.441749999999992 H54.23075 V7.26987500000001 H22.500125 Z"/></g><g id="Thin-M" transform="matrix(1 0 0 1 802.565 1126)"><path d="M30.0 -0.22999999999998977 H48.4615 V-29.65312499999999 H71.5385 V-0.22999999999998977 H90.0 V-45.22999999999999 L60.0 -67.92224999999999 L30.0 -45.22999999999999 V-0.22999999999998977 Z M25.0 4.77000000000001 V-47.72999999999999 L60.0 -74.17237499999999 L95.0 -47.72999999999999 V4.77000000000001 H66.5385 V-24.65299999999999 H53.4615 V4.77000000000001 H25.0 Z"/></g><g id="Ultralight-M" transform="matrix(1 0 0 1 506.415 1126)"><path d="M30.0 -0.22999999999998977 H49.5 V-29.47999999999999 H70.5 V-0.22999999999998977 H90.0 V-45.22999999999999 L60.0 -67.97999999999999 L30.0 -45.22999999999999 V-0.22999999999998977 Z M26.5 3.2700000000000102 V-46.97999999999999 L60.0 -72.35499999999999 L93.5 -46.97999999999999 V3.2700000000000102 H67.0 V-25.97999999999999 H53.0 V3.2700000000000102 H26.5 Z"/></g><g id="Bold-S" transform="matrix(1 0 0 1 2294.23 696)"><path d="M27.2205 -10.376499999999986 H33.236625000000004 V-35.13137499999999 H61.443375 V-10.376499999999986 H67.4595 V-42.922749999999986 L47.34 -58.01237499999999 L27.2205 -42.922749999999986 V-10.376499999999986 Z M15.58275 1.2612500000000129 V-48.74162499999999 L47.34 -72.60887499999998 L79.09725 -48.77446712499999 V1.2612500000000129 H51.285000000000004 V-24.972999999999985 H43.395 V1.2612500000000129 H15.58275 Z"/></g><g id="Semibold-S" transform="matrix(1 0 0 1 1998.1 696)"><path d="M26.705973375000003 -9.861973374999987 H34.222776375 V-34.145223624999986 H60.457223625 V-9.861973374999987 H67.97402662500001 V-43.18006262499999 L47.34 -58.65550862499998 L26.705973375000003 -43.18006262499999 V-9.861973374999987 Z M17.040624750000003 -0.19662474999998736 V-48.01268762499999 L47.34 -70.76517924999999 L77.63937525 -48.03132774999999 V-0.19662474999998736 H51.62801775 V-25.316017749999986 H43.05198225 V-0.19662474999998736 H17.040624750000003 Z"/></g><g id="Medium-S" transform="matrix(1 0 0 1 1701.85 696)"><path d="M26.320053750000003 -9.476053749999988 H34.962562500000004 V-33.40543749999999 H59.7174375 V-9.476053749999988 H68.35994625000001 V-43.372973124999994 L47.34 -59.13798212499999 L26.320053750000003 -43.372973124999994 V-9.476053749999988 Z M18.134080125 -1.290080124999987 V-47.46591062499999 L47.34 -69.382160875 L76.545919875 -47.47380062499999 V-1.290080124999987 H51.885330375 V-25.573330374999983 H42.794669625000004 V-1.290080124999987 H18.134080125 Z"/></g><g id="Regular-S" transform="matrix(1 0 0 1 1405.73 696)"><path d="M26.037000000000003 -9.192999999999987 H35.505 V-32.862999999999985 H59.175000000000004 V-9.192999999999987 H68.643 V-43.51449999999999 L47.34 -59.491749999999996 L26.037000000000003 -43.51449999999999 V-9.192999999999987 Z M18.936 -2.0919999999999863 V-47.06499999999999 L47.34 -68.368 L75.744 -47.06499999999999 V-2.0919999999999863 H52.074000000000005 V-25.761999999999986 H42.606 V-2.0919999999999863 H18.936 Z"/></g><g id="Light-S" transform="matrix(1 0 0 1 1109.75 696)"><path d="M26.037000000000003 -9.192999999999987 H36.870660375 V-32.635373499999986 H57.80933962500001 V-9.192999999999987 H68.643 V-43.51449999999999 L47.34 -59.56759262499999 L26.037000000000003 -43.51449999999999 V-9.192999999999987 Z M20.908598625 -4.064598624999988 V-46.07865137499999 L47.34 -65.978020375 L73.77140137500001 -46.07865137499999 V-4.064598624999988 H52.680938250000004 V-27.50707074999999 H41.99906175 V-4.064598624999988 H20.908598625 Z"/></g><g id="Thin-S" transform="matrix(1 0 0 1 814.015 696)"><path d="M26.037000000000003 -9.192999999999987 H38.236123500000005 V-32.407845624999986 H56.4438765 V-9.192999999999987 H68.643 V-43.51449999999999 L47.34 -59.643435249999996 L26.037000000000003 -43.51449999999999 V-9.192999999999987 Z M22.881 -6.036999999999988 V-45.09249999999999 L47.34 -63.58853387499998 L71.799 -45.09249999999999 V-6.036999999999988 H53.2878765 V-29.251746999999988 H41.392123500000004 V-6.036999999999988 H22.881 Z"/></g><g id="Ultralight-S" transform="matrix(1 0 0 1 517.792 696)"><path d="M39.64725 -23.592249999999986 H41.61975 V-46.86774999999999 H39.64725 V-23.592249999999986 Z M53.06025 -23.592249999999986 H55.03275 V-46.86774999999999 H53.06025 V-23.592249999999986 Z M47.384381250000004 -2.486499999999987 Q40.633500000000005 -2.486499999999987 34.66096725 -5.039999874999985 Q28.688335875 -7.593598374999985 24.199320375 -12.076696374999987 Q19.7104035 -16.55989299999999 17.15345175 -22.52039349999999 Q14.5965 -28.480992624999992 14.5965 -35.258009499999986 Q14.5965 -42.03512499999999 17.149999875 -47.95834524999999 Q19.703598375 -53.881664124999986 24.186696375 -58.37058099999999 Q28.669893000000005 -62.859596499999995 34.630393500000004 -65.41654824999999 Q40.590992625000005 -67.97349999999999 47.3680095 -67.97349999999999 Q54.145125 -67.97349999999999 60.06834525 -65.42000012499999 Q65.991664125 -62.866401624999995 70.480581 -58.38330362499998 Q74.96959650000001 -53.90010699999999 77.52654825 -47.96268474999999 Q80.0835 -42.02516387499999 80.0835 -35.27438124999999 Q80.0835 -28.52349999999999 77.530000125 -22.550967249999985 Q74.97640162500001 -16.578335874999986 70.493303625 -12.089320374999986 Q66.010107 -7.600403499999988 60.07268475 -5.043451749999985 Q54.135163875 -2.486499999999987 47.384381250000004 -2.486499999999987 Z M47.34 -4.458999999999985 Q60.16125 -4.458999999999985 69.136125 -13.433874999999986 Q78.111 -22.40874999999999 78.111 -35.22999999999999 Q78.111 -48.05124999999999 69.136125 -57.02612499999999 Q60.16125 -66.00099999999999 47.34 -66.00099999999999 Q34.518750000000004 -66.00099999999999 25.543875 -57.02612499999999 Q16.569 -48.05124999999999 16.569 -35.22999999999999 Q16.569 -22.40874999999999 25.543875 -13.433874999999986 Q34.518750000000004 -4.458999999999985 47.34 -4.458999999999985 Z"/></g></g></svg>